<?xml version="1.0" encoding="UTF-8" standalone="no"?>
<svg
   xmlns:dc="http://purl.org/dc/elements/1.1/"
   xmlns:cc="http://creativecommons.org/ns#"
   xmlns:rdf="http://www.w3.org/1999/02/22-rdf-syntax-ns#"
   xmlns:svg="http://www.w3.org/2000/svg"
   xmlns="http://www.w3.org/2000/svg"
   viewBox="0 0 529.1333 340.16"
   height="340.16"
   width="529.1333"
   xml:space="preserve"
   id="svg2"
   version="1.1"><metadata
     id="metadata8"><rdf:RDF><cc:Work
         rdf:about=""><dc:format>image/svg+xml</dc:format><dc:type
           rdf:resource="http://purl.org/dc/dcmitype/StillImage" /></cc:Work></rdf:RDF></metadata><defs
     id="defs6" /><g
     transform="matrix(1.3333333,0,0,-1.3333333,0,340.16)"
     id="g10"><g
       transform="scale(0.1)"
       id="g12"><path
         id="path14"
         style="fill:#ed1c24;fill-opacity:1;fill-rule:nonzero;stroke:none"
         d="m 2056.29,1532.06 c 0.91,-10.36 -3.45,-24.98 -12.65,-35.16 -8.85,-9.78 -41.7,-59.07 -53.41,-61.17 -11.79,-1.03 12.41,74.37 12.85,85.93 0.01,12.24 -10.12,15.59 -2.01,25.66 8.46,10.47 54.09,-2.38 55.22,-15.26" /><path
         id="path16"
         style="fill:#ed1c24;fill-opacity:1;fill-rule:nonzero;stroke:none"
         d="m 1859.46,1339.71 c 1.31,-3.42 0.95,-7.98 -1.05,-13.68 -2.03,-5.72 -2.92,-9.83 -2.71,-12.32 0.18,-2 1.15,-4.42 2.91,-7.29 -1.98,5.36 -3.71,10.75 -5.19,16.15 -1.33,-2.13 -1.7,-3.67 -1.11,-4.63 -4.04,0.16 -6.26,-0.29 -6.67,-1.33 l -1.01,2.93 -4.19,-12.45 c -1.9,4.36 -1.54,11.69 1.09,21.99 3.11,10.34 4.63,16.01 4.54,17.01 -1.02,5.95 0.26,20.15 3.83,42.61 3.57,22.45 5.68,35.72 6.33,39.8 0.67,-1.94 1.25,-5.67 1.73,-11.17 0.57,-6.49 0.78,-20.31 0.61,-41.46 -0.17,-21.15 0.14,-33.21 0.89,-36.16 z m 26.27,-24.13 c -1.49,-0.14 -3.37,1.22 -5.63,4.04 -2.26,2.82 -4.33,3.39 -6.19,1.72 -0.79,9 -0.48,19.84 0.93,32.54 1.4,12.72 3.82,22.49 7.25,29.33 -0.46,-12.12 0.32,-29.66 2.33,-52.64 z m 24.54,4.42 c -0.56,0.45 -2.23,-0.45 -5.06,-2.72 -2.36,-1.71 -4.43,-1.13 -6.19,1.73 l -0.78,8.99 c -0.53,6 -1.05,11.99 -1.58,17.98 -0.02,6.04 1.09,10.67 3.32,13.88 3.42,-10.26 5.95,-19.11 7.6,-26.51 2.12,-6.86 3.01,-11.31 2.69,-13.35 z m -95.57,-12.15 c 2.16,-1.81 3.86,-6.69 5.05,-14.64 1.66,-7.42 2.75,-11.34 3.3,-11.8 l -0.03,-8.31 -4,2.67 -1.99,-3.19 c -2.23,2.32 -3.9,4.19 -5.02,5.6 -1.18,1.91 -2.73,2.28 -4.63,1.11 l 0.99,-11.24 c -0.72,2.45 -1.32,6.42 -1.8,11.92 -0.88,9.99 -1.5,20.01 -1.87,30.04 0.07,10.57 0.02,22.65 -0.15,36.22 z m 142.26,47.94 c 1.98,-5.37 3.84,-12.25 5.58,-20.65 2.23,-8.36 3.63,-15.54 4.15,-21.53 0.48,-5.5 0.46,-11.04 -0.06,-16.62 -0.02,-5.53 0.06,-9.3 0.23,-11.3 l -2.1,-1.7 -1.75,11.18 c -0.45,-0.55 -1.91,-1.17 -4.36,-1.89 -2,-0.18 -4.25,-0.38 -6.74,-0.59 2.41,12.78 3.85,25 4.35,36.61 0.99,11.67 1.22,20.49 0.7,26.49 z m -23.51,-24.71 c 0.09,-1 0.22,-5.51 0.44,-13.55 0.2,-8.03 0.59,-12.52 1.18,-13.49 l 4.23,3.4 c 0.13,-1.5 0.95,-2.18 2.44,-2.05 1.99,0.17 3.54,-0.2 4.63,-1.11 0.8,-3.45 0.7,-7.99 -0.32,-13.62 -1.06,-5.12 -1.53,-8.44 -1.4,-9.93 3.04,-0.24 5.46,-2.04 7.27,-5.4 1.76,-2.87 3.81,-6.21 6.17,-10.04 -0.57,-5.08 -0.46,-9.35 0.36,-12.79 l 6.45,-4.73 c 0.95,0.59 1.54,2.4 1.78,5.45 0.21,3.53 1.34,4.89 3.43,4.07 -1.74,-3.17 -1.5,-5.92 0.72,-8.24 2.71,-2.29 5.16,-4.33 7.34,-6.16 0.95,0.59 1.58,1.91 1.91,3.94 0.28,2.54 1.46,3.41 3.55,2.58 2.31,-3.31 3.65,-7.23 4.04,-11.73 0.15,-7.54 0.56,-15.05 1.21,-22.53 0.31,-3.5 -0.22,-6.06 -1.58,-7.7 -1.41,-1.12 -4.46,-3.65 -9.15,-7.58 -7.4,-1.66 -16.97,-1.74 -28.66,-0.26 -11.76,1.99 -19.66,3.07 -23.69,3.22 -6.2,7.51 -10.93,15.66 -14.22,24.42 -2.77,8.82 -4.64,18.48 -5.56,28.96 -4.11,1.15 -7.73,-0.68 -10.84,-5.48 -2.6,-4.75 -4.97,-9.24 -7.13,-13.45 -0.97,-6.13 -1.16,-12.44 -0.6,-18.94 0.62,-6.98 2.68,-13.35 6.2,-19.08 4.03,-5.69 9.54,-11.24 16.56,-16.67 7.46,-4.88 14.92,-9.51 22.36,-13.9 6.49,-11.01 12.34,-20.31 17.53,-27.9 5.16,-7.1 12.28,-11.01 21.41,-11.71 1.63,-1.38 1.64,-4.41 0.03,-9.07 -1.14,-4.12 -0.88,-7.12 0.79,-8.98 -1.14,-4.13 -1.44,-6.67 -0.84,-7.63 l 2.45,-2.05 c 0.94,0.59 1.29,2.37 1.03,5.38 0.25,3.04 1.36,4.65 3.36,4.82 l 11.07,-5.82 c -1.36,-1.64 -2.2,-3.48 -2.53,-5.51 0.17,-2 0.37,-4.24 0.59,-6.75 1.54,-0.37 3.21,-2.23 5.02,-5.6 1.75,-2.86 3.65,-4.46 5.7,-4.79 -0.56,-5.08 -0.3,-8.07 0.79,-8.99 1.05,-11.99 -3.4,-24.45 -13.34,-37.4 -9.98,-12.44 -21.71,-22.27 -35.17,-29.5 -7.35,-2.15 -14.29,-3.51 -20.78,-4.08 -20.48,-1.79 -40.19,2.02 -59.12,11.44 -18.95,9.42 -35.23,22.84 -48.82,40.27 -2.4,4.32 -4.83,9.14 -7.3,14.46 -2.49,5.32 -3.66,10 -3.5,14.03 1.54,-0.37 3.26,-2.72 5.15,-7.09 2.34,-3.83 5.01,-5.6 8.02,-5.34 1.41,1.14 2.21,3.47 2.4,7 0.19,3.55 0.71,6.35 1.53,8.44 1.04,-0.41 2.56,-6.32 4.56,-17.72 1.97,-10.9 3.45,-16.3 4.45,-16.21 1.5,0.13 3.29,8.33 5.39,24.62 1.61,-6.91 2.94,-10.56 3.98,-10.98 1.7,3.69 2.95,6.56 3.77,8.65 0.79,2.58 3.22,3.55 7.3,2.89 0.89,-4.45 2.04,-8.87 3.42,-13.28 7.22,-1.9 13.07,-2.63 17.57,-2.24 4.49,0.4 7.04,2.88 7.65,7.46 1.06,5.12 3.3,8.35 6.7,9.64 5.18,-1.56 10.59,-3.1 16.26,-4.6 2.51,0.22 6.25,3.3 11.28,9.28 5.46,6.52 8.08,11.02 7.86,13.52 -0.04,0.51 -1.58,0.87 -4.62,1.11 -2.55,0.28 -5.58,3.29 -9.09,9.02 -3.07,6.28 -16.48,15.66 -40.22,28.17 -23.28,13.07 -37.87,24.38 -43.73,33.93 -5.37,9.6 -9.61,17.79 -12.72,24.56 -2.65,7.32 -4.37,15.48 -5.16,24.46 -0.43,5 -0.15,10.31 0.87,15.93 2.98,-5.27 5.39,-9.84 7.24,-13.71 1.81,-3.37 3.64,-6.98 5.48,-10.84 0.32,2.04 0.85,4.6 1.59,7.69 1.23,3.13 2.7,6.52 4.39,10.19 0.86,1.59 0.05,5.29 -2.48,11.12 -2.06,6.35 -3.15,10.03 -3.24,11.03 -0.26,3 1.64,4.42 5.68,4.27 1.1,4.62 2.28,8.5 3.51,11.63 1.23,3.12 3.23,6.33 5.95,9.59 1.55,-0.37 3.43,-1.72 5.64,-4.04 2.17,-1.82 3.74,-2.45 4.69,-1.86 0.28,2.54 0.8,5.36 1.53,8.44 0.74,3.09 1.47,6.17 2.2,9.25 2.07,-6.36 4.39,-12.7 6.96,-19.02 -0.52,6 0.49,11.62 3.04,16.88 2.53,5.76 6.07,11.34 10.62,16.78 0.22,-2.5 1.37,-4.16 3.46,-4.98 2.04,-0.33 6.62,-0.93 13.75,-1.82 l 9.24,-2.22 c 1.46,0.64 3.16,1.3 5.13,1.96 2.4,1.23 4,0.11 4.82,-3.34 0.8,-3.46 1.63,-7.16 2.47,-11.11 1.91,1.17 3.2,3.79 3.84,7.88 1.11,4.63 2.58,10.8 4.43,18.51 1.8,8.21 3.22,14.88 4.29,20 1.91,1.17 3.8,2.59 5.66,4.27 z m 44.25,-65.59 c -4.36,3.66 -5.91,7.04 -4.67,10.17 -2,-0.17 -3.75,-0.32 -5.25,-0.46 0.53,11.12 5.8,20.14 15.76,27.05 7.48,0.65 13.94,10.28 19.37,28.87 5.37,19.1 8.01,29.14 7.92,30.14 1.99,-5.36 3.2,-10.54 3.63,-15.54 1.44,-16.48 -3.38,-33.26 -14.48,-50.34 -7.64,-10.23 -15.08,-20.18 -22.28,-29.89 z m -172.92,-8.32 c -3.13,1.24 -5.04,0.06 -5.72,-3.52 -0.55,0.46 -0.79,3.2 -0.73,8.24 0.56,5.08 0.23,14.61 -0.99,28.6 1.36,-3.91 2.85,-9.57 4.51,-16.97 2.15,-7.37 3.13,-12.81 2.93,-16.35 z m 187.12,-76.48 c -1.33,-7.68 -2.7,-15.1 -4.09,-22.26 0.44,-5 2.86,-9.57 7.24,-13.71 0.7,-8 -0.9,-12.66 -4.81,-14.01 -1.04,0.4 -2.69,2.02 -4.96,4.84 -1.8,3.38 -3.66,4.48 -5.57,3.3 -0.15,7.53 0.16,15.37 0.97,23.48 0.79,8.13 4.54,14.24 11.22,18.36 z m -157.41,-81.72 c -2.59,0.77 -5.2,1.81 -7.83,3.09 -6.05,6 -9.61,9.21 -10.66,9.63 -0.35,4 -2.5,11.35 -6.46,22.09 -3.96,10.72 -5.67,18.87 -5.16,24.46 4.09,-12.22 10.11,-23.53 18.07,-33.91 8.45,-10.33 12.46,-18.79 12.04,-25.36 z m 26.25,-6.77 c -4.35,3.64 -8.71,7.54 -13.11,11.7 l -2.68,30.7 c 1.02,-5.94 2.31,-12.12 3.89,-18.53 2.02,-5.86 5.99,-13.82 11.9,-23.87 z m 143.21,2.72 c -3.4,4.23 -5.28,8.34 -5.63,12.35 -0.26,2.99 0.21,6.3 1.41,9.93 1.64,4.17 3.81,8.13 6.5,11.9 2.92,-10.33 4.6,-17.98 5.03,-22.97 0.27,-2.99 -0.81,-5.11 -3.22,-6.32 -1.91,-1.19 -3.28,-2.8 -4.09,-4.89 z m -125.88,-11.02 -6.03,8.53 -2.66,-4 c -0.76,2.94 -1.37,6.93 -1.81,11.93 -0.35,3.99 0.59,7.59 2.83,10.8 0.7,-7.99 2.73,-13.85 6.07,-17.58 3.3,-3.23 3.84,-6.45 1.6,-9.68 z m 60.73,298.23 c -0.19,-3.53 -2.01,-8.73 -5.44,-15.57 -2.91,-6.8 -3.97,-14.94 -3.14,-24.43 -7.01,5.42 -10.7,10.13 -11.05,14.12 -0.17,2 0.82,5.11 2.96,9.33 2.15,4.2 3.11,7.56 2.89,10.07 -1.74,19.97 -2.93,36.47 -3.57,49.5 -0.69,13.53 -0.53,26.13 0.47,37.79 5.35,-15.13 9.23,-27.88 11.65,-38.23 2.87,-9.82 4.58,-17.98 5.15,-24.47 0.26,-2.99 0.53,-5.99 0.79,-8.98 -0.65,-4.09 -0.89,-7.13 -0.71,-9.13 z m -83.37,-48.06 c 0.63,-1.46 1.26,-2.92 1.9,-4.37 0.37,1.54 0.28,2.55 -0.27,3 -0.55,0.46 -1.09,0.92 -1.63,1.37" /><path
         id="path18"
         style="fill:#ffffff;fill-opacity:1;fill-rule:nonzero;stroke:none"
         d="m 2868.37,1348.89 c -2.76,31.6 -12.24,56.66 -28.43,75.21 -16.19,18.54 -37.67,26.65 -64.43,24.31 -23.56,-2.06 -42.3,-9.91 -56.21,-23.54 -13.92,-13.63 -22.39,-27.86 -25.41,-42.68 l 49.84,-23.96 c 2.29,-1.42 4.26,-2.33 5.91,-2.72 2.2,-0.36 3.82,-0.48 4.89,-0.39 2.19,-0.35 4.1,2.52 5.73,8.59 l -0.49,5.63 c -3.6,4 -7.18,8 -10.77,12.01 -2.57,4.62 -4.15,10.43 -4.76,17.39 -2.06,23.55 7.08,36.22 27.42,38 7.5,0.65 13.36,-1.53 17.58,-6.55 4.7,-4.44 6.92,-11.27 6.64,-20.46 l 1.88,-49.21 c 0.04,-0.54 -25.77,-7.65 -77.44,-21.34 -51.14,-13.64 -74.9,-41.08 -71.3,-82.31 1.83,-20.88 9.75,-37.45 23.78,-49.71 14.01,-12.25 32.27,-17.41 54.75,-15.44 15.53,1.35 30.04,5.06 43.54,11.09 13.99,6.62 26.45,15.27 37.39,25.93 3.61,-10.48 10.28,-18.78 19.98,-24.95 9.72,-6.16 20.46,-8.73 32.24,-7.7 17.13,1.5 31.41,7.87 42.84,19.12 11.9,11.84 21.28,28.03 28.11,48.59 l -18.39,62.33 c -2.74,-30.46 -5.98,-55.02 -9.74,-73.7 -3.28,-18.08 -7.86,-27.39 -13.75,-27.9 -9.09,-0.8 -14.43,7.64 -15.97,25.3 l -5.43,99.06 v 0" /><path
         id="path20"
         style="fill:#ec008c;fill-opacity:1;fill-rule:nonzero;stroke:none"
         d="M 951.867,784.66 2999.23,963.781 3018.64,741.891 971.277,562.77 951.867,784.66" /><path
         id="path22"
         style="fill:#ffffff;fill-opacity:1;fill-rule:nonzero;stroke:none"
         d="m 1583.98,1383.69 -337.46,-76.67 34.92,-515.622 281.31,58.661 21.23,533.631" /><path
         id="path24"
         style="fill:#ec008c;fill-opacity:1;fill-rule:nonzero;stroke:none"
         d="m 1050.58,1153.66 c -8.26,-62.5 -34.85,-116.74 -79.775,-162.769 -44.93,-46.032 -94.871,-71.442 -149.813,-76.25 -51.758,-4.52 -96.508,10.089 -134.222,43.839 -37.317,34.258 -58.422,79.31 -63.309,135.16 -1.074,12.27 -0.781,29.9 0.871,52.92 1.598,23.47 8.895,49.96 21.863,79.47 13.43,29.54 31.188,56.71 53.262,81.52 22.082,24.8 46.25,44.08 72.5,57.82 26.703,13.77 55.035,21.96 85.004,24.59 43.59,3.81 77.344,-2.84 101.262,-19.96 24.328,-16.63 42.397,-32.22 54.187,-46.74 11.8,-14.52 19.56,-30.08 23.3,-46.68 l -45.632,-3.99 c -11.344,25.08 -29.711,44.06 -55.078,56.94 -25.422,13.33 -52.434,18.74 -81.031,16.24 -22.254,-1.94 -44.121,-8.2 -65.617,-18.78 -21.082,-10.07 -40.836,-24.84 -59.262,-44.3 -18.02,-18.96 -33.004,-41.09 -44.981,-66.38 -11.523,-25.27 -17.964,-45.73 -19.332,-61.41 -0.964,-15.18 -1.254,-27.55 -0.867,-37.13 0.336,-9.13 0.543,-14.14 0.621,-15.05 4.055,-46.31 21.203,-82.79 51.442,-109.419 30.242,-26.641 66.925,-38.071 110.058,-34.301 36.332,3.18 71.125,18.578 104.399,46.2 33.234,28.07 56.09,62.33 68.562,102.77 l -224.762,-19.66 3.235,41.46 273.115,23.89 v 0" /><path
         id="path26"
         style="fill:#00a650;fill-opacity:1;fill-rule:nonzero;stroke:none"
         d="m 1123.95,1254.1 c 1.81,0.15 7.08,-2.59 15.81,-8.22 9.19,-5.61 17.18,-8.11 24,-7.52 4.54,0.4 9.26,1.28 14.18,2.62 5.36,1.39 12.69,6.59 21.96,15.65 9.73,9.08 15.28,13.69 16.64,13.81 L 1211.06,933 c -10.45,-0.922 -19.53,-1.711 -27.25,-2.391 -7.26,-0.629 -14.96,-1.539 -23.09,-2.711 -8.09,-1.628 -16.17,-3.476 -24.22,-5.546 -7.56,-2.5 -13.8,-4.403 -18.72,-5.743 l 6.17,337.491 z m 49.23,190.29 c 13.96,2.59 25.92,-0.71 35.87,-9.9 9.95,-9.19 15.64,-21.96 17.07,-38.31 1.16,-13.17 -4.11,-26.21 -15.79,-39.13 -11.26,-12.43 -24.33,-19.97 -39.19,-22.64 -14.99,-1.31 -27.42,2.18 -37.29,10.46 -9.91,8.74 -14.61,20.46 -14.06,35.15 0.01,15.55 5.18,29.73 15.5,42.53 10.73,13.29 23.36,20.57 37.89,21.84 v 0" /><path
         id="path28"
         style="fill:#f47216;fill-opacity:1;fill-rule:nonzero;stroke:none"
         d="m 1246.63,1307.23 337.55,76.48 -21.1,-533.858 -281.74,-58.551 z m 42.38,-506.769 266.98,55.937 19.22,518.052 -320.2,-73.66 z m 50.28,416.429 c -2.3,26.32 -12.95,38.64 -31.92,36.98 -8.64,-0.76 -13.21,1.89 -13.74,7.93 -0.11,1.29 0.64,2.66 2.25,4.1 1.57,1.89 3.15,3.75 4.73,5.63 1.54,2.31 3.28,4.64 5.26,6.99 1.92,2.77 3.96,4.25 6.12,4.44 4.32,0.38 9.73,0.63 16.23,0.76 6.52,0.14 10.85,0.31 13,0.5 13.81,1.2 26.94,5.18 39.38,11.92 10.26,6.97 20.71,14.2 31.36,21.64 2.15,0.19 4.41,-0.69 6.75,-2.67 2.34,-1.96 4.93,-4.12 7.74,-6.48 -1.4,-8.82 -2.73,-18.5 -3.97,-29.04 -0.86,-10.08 -0.82,-20.5 0.12,-31.29 16.11,19.67 32.2,39.33 48.3,58.99 12.04,11.49 23.66,17.72 34.88,18.7 12.94,1.13 24.64,-0.89 35.09,-6.05 10.44,-5.18 16.01,-11.64 16.68,-19.4 0.42,-4.75 -1.46,-10.56 -5.64,-17.45 -3.79,-6.42 -7.96,-13.3 -12.54,-20.66 -4.14,-7.32 -8.1,-14.18 -11.89,-20.6 -3.78,-6.41 -7.4,-9.77 -10.86,-10.07 -3.01,-0.27 -8.33,3.39 -15.95,10.99 -7.62,7.58 -15.09,11.06 -22.43,10.42 -12.51,-1.1 -23.41,-10.53 -32.72,-28.29 -8.88,-17.73 -12.25,-38.89 -10.1,-63.47 l 12.8,-146.22 c 0.98,-11.23 3.02,-19.729 6.14,-25.561 3.55,-5.758 8.96,-10.508 16.24,-14.231 7.24,-3.269 16.9,-4.378 28.98,-3.32 12.51,1.094 18.99,-0.949 19.44,-6.129 0.23,-2.59 -1.8,-6.668 -6.1,-12.269 -4.29,-5.571 -7.3,-8.442 -9.03,-8.602 l -95.44,-4.437 -79.9,-10.903 c -3.88,-0.34 -5.99,1.434 -6.33,5.321 -0.23,2.582 0.43,5.031 1.96,7.332 1.5,2.738 3,5.48 4.5,8.218 10.05,4.352 17.77,10.461 23.18,18.321 5.39,7.859 7.42,19.558 6.06,35.09 l -18.63,212.87 v 0" /><path
         id="path30"
         style="fill:#ffffff;fill-opacity:1;fill-rule:nonzero;stroke:none"
         d="m 1203.8,634.199 -30.87,125.313 -28.42,-2.481 -16.08,-67.601 c -2.38,-9.68 -3.83,-17.008 -4.85,-26.969 l -0.38,-0.031 c -2.48,8.89 -5.49,17.351 -9.3,26.101 l -26.98,63.457 -28.6,-2.5 -8.46,-128.758 24.84,2.18 2.03,59.16 c 0.53,11.239 0.98,21.328 0.74,32.68 l 0.38,0.039 c 2.4,-10.051 6.6,-21.238 10.89,-31.289 l 24.54,-57.219 24.28,2.129 14.55,65.57 c 2.33,10.25 3.61,19.461 4.59,27.711 l 0.38,0.028 c 1.72,-8.77 3.67,-18.078 6.6,-29.957 l 14.34,-59.813 25.78,2.25" /><path
         id="path32"
         style="fill:#ffffff;fill-opacity:1;fill-rule:nonzero;stroke:none"
         d="m 1283.59,764.078 c -0.64,7.332 -6.97,12.473 -14.12,11.844 -7.15,-0.621 -12.49,-6.781 -11.85,-14.113 0.63,-7.168 6.97,-12.489 14.12,-11.86 7.16,0.621 12.48,6.961 11.85,14.129 z m -38.01,-3.328 c -0.65,7.34 -6.97,12.469 -14.12,11.852 -7.16,-0.633 -12.49,-6.782 -11.85,-14.122 0.63,-7.16 6.97,-12.492 14.12,-11.859 7.15,0.629 12.47,6.969 11.85,14.129 z m 53.57,-118.211 c -1.05,7.691 -2.01,16.531 -2.67,24.039 l -3.41,38.961 c -1.77,20.332 -11.31,31.82 -41.43,29.18 -12.04,-1.047 -23.87,-4.539 -32.98,-8.758 l 3.83,-19.949 c 7.51,5.199 18.55,9.019 27.02,9.758 13.55,1.179 18.7,-3.489 19.56,-13.27 l 0.44,-5.078 c -31.8,-2.781 -52.97,-16.594 -51.01,-38.973 1.31,-15.07 11.94,-23.801 28.88,-22.32 13.93,1.223 24.76,9.551 28.36,20.492 l 0.2,-0.172 c -0.32,-4.961 -0.03,-10.437 0.44,-15.898 l 22.77,1.988 z m -28.07,37 c 0.98,-11.289 -6.12,-23.289 -17.98,-24.328 -6.96,-0.609 -11.44,2.969 -11.97,9 -0.66,7.519 4.34,15.367 29.75,17.59 l 0.2,-2.262 v 0" /><path
         id="path34"
         style="fill:#ffffff;fill-opacity:1;fill-rule:nonzero;stroke:none"
         d="m 1407.49,652.02 -12.02,137.378 -23.9,-2.089 3.75,-42.899 c -4.19,0.211 -7.97,0.059 -11.92,-0.281 -31.05,-2.719 -47.59,-26.168 -44.82,-57.789 2.34,-26.711 15.13,-42.86 37.9,-40.871 14.3,1.25 24.01,9.511 28,20.281 l 0.38,0.031 c -0.31,-5.14 -0.16,-11.191 0.23,-15.722 z m -28.15,46.468 c 1.4,-16 -4.85,-31.328 -17.45,-32.429 -10.92,-0.957 -16.79,7.621 -18.32,25.132 -2.02,23.149 7,32.661 20.74,33.86 4.14,0.359 8.33,0.16 12.74,-0.403 l 2.29,-26.16 v 0" /><path
         id="path36"
         style="fill:#ffffff;fill-opacity:1;fill-rule:nonzero;stroke:none"
         d="m 1498.25,662.621 -3.68,20.348 c -4.85,-3.078 -11.7,-5 -18.1,-5.559 -15.99,-1.39 -23.16,8.969 -24.56,24.969 -1.55,17.691 5.19,29.652 20.43,30.98 6.02,0.532 11.99,-0.468 17.23,-1.89 l 0.62,21.09 c -6.17,1.179 -13.03,1.519 -19.42,0.961 -33.13,-2.899 -46.41,-26.629 -43.86,-55.801 2.78,-31.797 20.15,-43.938 46.12,-41.66 9.98,0.871 19.03,3.562 25.22,6.562 v 0" /><path
         id="path38"
         style="fill:#ffffff;fill-opacity:1;fill-rule:nonzero;stroke:none"
         d="m 1602.31,669.07 -5.75,65.68 c -1.43,16.371 -9.39,29.328 -30.47,27.48 -14.49,-1.269 -24.61,-9.171 -29.14,-20.171 l -0.4,0.152 c 0.84,5.578 0.53,13.508 0.04,19.16 l -3.51,40.07 -24.09,-2.101 12.02,-137.391 24.09,2.11 -3.95,45.171 c -1.44,16.372 6.94,31.141 19.18,32.211 8.84,0.778 11.99,-4.82 12.84,-14.613 l 5.24,-59.859 23.9,2.101" /><path
         id="path40"
         style="fill:#ffffff;fill-opacity:1;fill-rule:nonzero;stroke:none"
         d="m 1704.02,732.199 c -2.02,23.153 -15.69,40.731 -42.98,38.34 -28.04,-2.449 -42.01,-24.898 -39.5,-53.519 2.88,-32.918 20.74,-46.34 50.47,-43.739 11.67,1.02 23.35,4.129 32.97,8.938 l -3.88,18.453 c -7.77,-4.481 -17.56,-7.434 -26.78,-8.242 -17.31,-1.508 -26.71,6.199 -28.05,23.73 l 57.96,5.07 c 0.21,4 0.07,7.782 -0.21,10.969 z m -24.37,3.371 -34.44,-3.011 c 0.33,11.41 6.65,19.351 16.62,20.222 10.16,0.891 17.18,-5.511 17.82,-17.211 v 0" /><path
         id="path42"
         style="fill:#ffffff;fill-opacity:1;fill-rule:nonzero;stroke:none"
         d="m 1813.85,687.57 -5.75,65.692 c -1.43,16.367 -9.39,29.316 -30.47,27.476 -15.24,-1.328 -25.48,-10.008 -30.15,-21.59 l -0.21,0.172 c 0.52,4.969 0.25,12.34 -0.13,16.66 l -22.77,-1.992 8.18,-93.527 24.09,2.109 -3.95,45.168 c -1.43,16.371 6.94,31.141 19.18,32.211 8.84,0.781 11.99,-4.82 12.85,-14.609 l 5.23,-59.86 23.9,2.09" /><path
         id="path44"
         style="fill:#ffffff;fill-opacity:1;fill-rule:nonzero;stroke:none"
         d="m 1881.93,732.031 -1.67,19.188 -46.3,-4.047 1.68,-19.192 46.29,4.051" /><path
         id="path46"
         style="fill:#ffffff;fill-opacity:1;fill-rule:nonzero;stroke:none"
         d="m 1990.08,702.988 -1.98,22.59 -27.47,-2.406 c -15.62,-1.363 -24.28,-2.121 -27.44,-2.774 1.99,3.211 3.44,6.18 5.06,9.352 l 41.68,80.641 -1.72,19.578 -82.05,-7.18 1.93,-22.019 29.35,2.57 c 12.62,1.101 18.62,1.808 23.12,2.39 -2.66,-4.199 -4.97,-8.21 -7.23,-12.769 l -39.21,-78.52 1.65,-18.82 84.31,7.367" /><path
         id="path48"
         style="fill:#ffffff;fill-opacity:1;fill-rule:nonzero;stroke:none"
         d="m 2094.28,712.109 -8.18,93.532 -24.09,-2.11 3.95,-45.152 c 1.43,-16.367 -6.76,-31.129 -18.99,-32.199 -9.04,-0.789 -12.18,4.808 -13.03,14.601 l -5.24,59.84 -23.9,-2.09 5.74,-65.672 c 1.43,-16.371 9.4,-29.339 30.48,-27.5 15.43,1.352 25.48,10.012 30.16,21.61 l 0.2,-0.168 c -0.52,-4.981 -0.06,-12.321 0.32,-16.672 l 22.58,1.98" /><path
         id="path50"
         style="fill:#ffffff;fill-opacity:1;fill-rule:nonzero;stroke:none"
         d="m 2207.11,721.98 -39.64,47.739 29.01,45.582 -29.36,-2.571 -23.88,-41.332 -7.24,82.793 -24.09,-2.113 12.02,-137.379 24.09,2.11 -4.06,46.312 33.04,-43.781 30.11,2.64" /><path
         id="path52"
         style="fill:#ffffff;fill-opacity:1;fill-rule:nonzero;stroke:none"
         d="m 2304.73,730.52 -8.19,93.531 -24.09,-2.11 3.95,-45.152 c 1.44,-16.367 -6.76,-31.129 -18.99,-32.199 -9.03,-0.789 -12.17,4.808 -13.03,14.601 l -5.24,59.84 -23.9,-2.09 5.74,-65.671 c 1.44,-16.372 9.4,-29.34 30.48,-27.5 15.43,1.351 25.48,10.011 30.16,21.609 l 0.2,-0.168 c -0.51,-4.973 -0.06,-12.32 0.32,-16.672 l 22.59,1.981" /><path
         id="path54"
         style="fill:#ffffff;fill-opacity:1;fill-rule:nonzero;stroke:none"
         d="m 2415.67,740.23 -5.74,65.68 c -1.44,16.371 -9.4,29.328 -30.48,27.481 -15.24,-1.332 -25.48,-10 -30.15,-21.59 l -0.21,0.168 c 0.52,4.972 0.25,12.34 -0.13,16.672 l -22.77,-1.993 8.19,-93.539 24.09,2.11 -3.96,45.172 c -1.43,16.371 6.95,31.14 19.18,32.211 8.84,0.777 11.99,-4.821 12.85,-14.614 l 5.24,-59.847 23.89,2.089" /><path
         id="path56"
         style="fill:#ffffff;fill-opacity:1;fill-rule:nonzero;stroke:none"
         d="m 2490.89,885.238 c -5,0.711 -10.3,0.633 -15.38,0.192 -25.6,-2.239 -36.17,-15.692 -33.95,-41.102 l 0.66,-7.527 -16.38,-1.442 1.63,-18.621 16.38,1.434 6.55,-74.91 23.9,2.097 -6.55,74.903 21.83,1.91 -1.63,18.629 -21.83,-1.91 -0.7,7.918 c -1.08,12.41 3.14,18.281 13.68,19.203 3.58,0.316 7.94,0.308 11.82,-0.684 l -0.03,19.91 v 0" /><path
         id="path58"
         style="fill:#ffffff;fill-opacity:1;fill-rule:nonzero;stroke:none"
         d="m 2566.74,754.012 -1.7,19.398 c -3.31,-1.25 -7.58,-2.199 -11.53,-2.539 -8.29,-0.73 -11.41,2.418 -12.46,14.457 l -3.59,41.031 22.77,1.993 -1.63,18.628 -22.77,-1.992 -3.08,35.192 -23.53,-8.5 2.52,-28.801 -16,-1.399 1.63,-18.628 16.19,1.418 4.15,-47.43 c 1.91,-21.828 8.97,-28.789 29.66,-26.981 6.59,0.582 13.48,2.121 19.37,4.153 v 0" /><path
         id="path60"
         style="fill:#ffffff;fill-opacity:1;fill-rule:nonzero;stroke:none"
         d="m 2645.53,789.539 c -2.65,30.301 -40.45,20.16 -41.78,35.422 -0.51,5.828 3.68,10 13.08,10.82 5.84,0.508 12.13,0.098 17.53,-0.941 l -0.91,19.07 c -5.73,0.449 -11.81,0.668 -17.27,0.192 -26.35,-2.301 -38.52,-17.024 -37.09,-33.391 2.78,-31.813 39.79,-19.09 41.24,-35.652 0.54,-6.207 -5.15,-10.5 -14.38,-11.297 -7.15,-0.633 -14.42,0.066 -20.38,1.058 l 1.16,-19.808 c 6.11,-0.41 12.95,-0.571 19.72,0.019 25.6,2.239 40.69,16.071 39.08,34.508 v 0" /><path
         id="path62"
         style="fill:#ffffff;fill-opacity:1;fill-rule:nonzero;stroke:none"
         d="m 2723.28,767.711 -1.7,19.398 c -3.3,-1.25 -7.58,-2.199 -11.53,-2.55 -8.29,-0.719 -11.41,2.421 -12.46,14.472 l -3.59,41.028 22.78,1.992 -1.63,18.621 -22.78,-1.992 -3.08,35.199 -23.53,-8.508 2.52,-28.801 -15.99,-1.398 1.63,-18.621 16.18,1.41 4.15,-47.422 c 1.91,-21.828 8.97,-28.789 29.67,-26.98 6.59,0.57 13.47,2.121 19.36,4.152 v 0" /><path
         id="path64"
         style="fill:#ffffff;fill-opacity:1;fill-rule:nonzero;stroke:none"
         d="m 2819.48,775.551 c -1.05,7.687 -2.01,16.527 -2.67,24.039 l -3.41,38.961 c -1.78,20.328 -11.32,31.82 -41.43,29.179 -12.04,-1.05 -23.87,-4.539 -32.99,-8.761 l 3.83,-19.949 c 7.51,5.21 18.56,9.019 27.03,9.761 13.54,1.18 18.7,-3.48 19.56,-13.269 l 0.44,-5.082 c -31.81,-2.782 -52.98,-16.59 -51.02,-38.969 1.32,-15.07 11.95,-23.801 28.88,-22.32 13.93,1.218 24.76,9.55 28.36,20.488 l 0.21,-0.168 c -0.33,-4.961 -0.04,-10.441 0.44,-15.902 l 22.77,1.992 z m -28.08,37 c 0.99,-11.289 -6.11,-23.289 -17.97,-24.332 -6.96,-0.598 -11.45,2.972 -11.98,9.011 -0.66,7.508 4.35,15.36 29.76,17.579 l 0.19,-2.258 v 0" /><path
         id="path66"
         style="fill:#ffffff;fill-opacity:1;fill-rule:nonzero;stroke:none"
         d="m 2934.95,775.031 c -1.58,18.078 -14.08,26.457 -34.4,24.688 l -14.49,-1.27 c -10.92,-0.961 -14.62,0.231 -15,4.582 -0.2,2.25 1.09,4.821 3.99,6.41 2.5,-0.363 6.09,-0.23 9.29,0.047 25.97,2.274 39.27,17.09 37.46,37.793 -0.46,5.278 -2.74,9.617 -5.8,12.008 l 12.61,1.109 -1.64,18.813 -31.62,-2.77 c -5.37,0.68 -10.34,1.18 -16.55,0.637 -27.48,-2.398 -40.9,-20.258 -39.17,-40.019 1.01,-11.481 6.58,-21.039 16.21,-24.938 -6.36,-3.019 -10.27,-10.383 -9.68,-17.16 0.58,-6.582 4.58,-11.172 10.47,-13.5 -7.37,-4.633 -13.18,-14.039 -12.32,-23.832 1.6,-18.258 17.66,-26.328 42.5,-24.16 31.24,2.73 49.91,21.25 48.14,41.562 z m -36,68.918 c 0.91,-10.34 -5.7,-17.179 -16.61,-18.14 -11.67,-1.02 -19.01,4.793 -19.91,15.14 -0.87,9.981 5.48,17.551 16.96,18.563 11.29,0.976 18.62,-4.821 19.56,-15.563 z m 12.56,-74.179 c 0.78,-8.84 -6.92,-16.161 -22.74,-17.54 -12.04,-1.058 -20.39,3.329 -21.14,12 -0.46,5.258 2.1,10.598 7.3,14.09 1.13,0.102 3,0.258 4.32,0.379 l 16.38,1.43 c 10.34,0.902 15.29,-3.578 15.88,-10.359 v 0" /><path
         id="path68"
         style="fill:#33bdf2;fill-opacity:1;fill-rule:nonzero;stroke:none"
         d="m 2780.51,1483.65 c 27.84,2.43 52.19,-1.38 73.03,-11.42 20.84,-10.05 42.02,-27.08 63.55,-51.1 l 42.29,-224.51 c -7.44,-13.59 -20.51,-24.46 -39.23,-32.56 -18.22,-7.53 -40.18,-12.42 -65.89,-14.67 -45.5,-3.98 -91.15,-0.14 -136.96,11.49 -45.8,11.65 -71.63,26.37 -77.5,44.2 l -24.73,134.61 c 9.21,18.07 19.69,37.06 31.43,56.97 12.28,19.95 26.77,36.32 43.46,49.12 17.21,12.82 31.79,21.93 43.72,27.28 12.49,5.42 28.1,8.95 46.83,10.59 z m 87.86,-134.76 c -2.76,31.6 -12.24,56.66 -28.43,75.21 -16.19,18.54 -37.67,26.65 -64.43,24.31 -23.56,-2.06 -42.3,-9.91 -56.21,-23.54 -13.92,-13.63 -22.39,-27.86 -25.41,-42.68 l 49.84,-23.96 c 2.29,-1.42 4.26,-2.33 5.91,-2.72 2.2,-0.36 3.82,-0.48 4.89,-0.39 2.19,-0.35 4.1,2.52 5.73,8.59 l -0.49,5.63 c -3.6,4 -7.18,8 -10.77,12.01 -2.57,4.62 -4.15,10.43 -4.76,17.39 -2.06,23.55 7.08,36.22 27.42,38 7.5,0.65 13.36,-1.53 17.58,-6.55 4.7,-4.44 6.92,-11.27 6.64,-20.46 l 1.88,-49.21 c 0.04,-0.54 -25.77,-7.65 -77.44,-21.34 -51.14,-13.64 -74.9,-41.08 -71.3,-82.31 1.83,-20.88 9.75,-37.45 23.78,-49.71 14.01,-12.25 32.27,-17.41 54.75,-15.44 15.53,1.35 30.04,5.06 43.54,11.09 13.99,6.62 26.45,15.27 37.39,25.93 3.61,-10.48 10.28,-18.78 19.98,-24.95 9.72,-6.16 20.46,-8.73 32.24,-7.7 17.13,1.5 31.41,7.87 42.84,19.12 11.9,11.84 21.28,28.03 28.11,48.59 l -18.39,62.33 c -2.74,-30.46 -5.98,-55.02 -9.74,-73.7 -3.28,-18.08 -7.86,-27.39 -13.75,-27.9 -9.09,-0.8 -14.43,7.64 -15.97,25.3 l -5.43,99.06 z m -140.47,33.03 c -7.71,2.03 -13.67,5.29 -17.84,9.78 1.14,5.49 3.9,10.86 8.3,16.1 4.89,5.82 9.57,10.81 14.07,14.98 l -4.53,-40.86 z m 117.3,-128.93 c 2.29,-26.23 12.95,-40.13 31.97,-41.7 l 0.07,-0.81 c -1.01,-0.64 -2.85,-1.32 -5.48,-2.1 -2.09,-0.73 -5.54,-1.28 -10.37,-1.71 -11.78,-1.03 -22.06,2.38 -30.84,10.25 -8.78,7.86 -13.98,21.16 -15.62,39.9 l -5.72,120.89 c -0.8,9.1 -1.82,17.65 -3.06,25.63 -0.7,8.02 -2.03,17.08 -3.99,27.16 12.73,-3.74 21.92,-13.18 27.56,-28.33 5.64,-15.16 9.31,-32.37 10.99,-51.65 l 4.49,-97.53 z m -156.03,7.4 c 1.26,-14.46 6.41,-26.96 15.43,-37.5 9.01,-10.54 20.06,-16.58 33.14,-18.15 -2,-1.79 -7.55,-3.08 -16.65,-3.87 -14.99,-1.31 -26.17,3.11 -33.52,13.25 -6.84,10.19 -11.11,25.2 -12.84,45 -1.6,18.21 1.13,33.28 8.17,45.23 7.54,12.53 18.26,19.39 32.18,20.61 l 1.02,-2.33 c -8.5,-7.76 -15.48,-17.27 -20.98,-28.55 -4.99,-10.68 -6.98,-21.92 -5.95,-33.69 z m 23.61,7.73 c -2.2,25.15 5.13,43.06 22,53.71 17.41,10.7 39.24,17.19 65.47,19.49 l 3.33,-93.59 c -10.05,-20.83 -25.51,-32.17 -46.39,-34 -12.31,-1.08 -22.44,3.71 -30.39,14.35 -7.98,11.17 -12.66,24.51 -14.02,40.04 v 0" /><path
         id="path70"
         style="fill:#33bdf2;fill-opacity:1;fill-rule:nonzero;stroke:none"
         d="m 1634.97,1023.6 57.72,7.12 -49.99,406.71 -57.72,-7.12 -5.71,49.6 107.93,13.58 55.77,-457.01 57.71,7.1 6.64,-52.26 -165.71,-19.98 -6.64,52.26" /><path
         id="path72"
         style="fill:#542791;fill-opacity:1;fill-rule:nonzero;stroke:none"
         d="m 2095.23,1528.08 186.33,16.3 c 97.98,8.57 175.51,-11.35 232.63,-59.76 57.59,-47.84 89.65,-108.96 96.16,-183.38 7.12,-81.38 -13.42,-145.76 -61.6,-193.15 -47.65,-47.31 -114.58,-74.75 -200.78,-82.29 l -207.21,-18.13 z m 150.21,-477.27 67.45,5.91 c 78.17,6.84 130.74,31.94 157.69,75.3 26.91,43.89 37.67,96.62 32.29,158.2 -6,68.53 -28.64,123.73 -67.9,165.61 -38.73,41.93 -90.76,60.04 -156.08,54.33 l -73.08,-6.4 39.63,-452.95" /><path
         id="path74"
         style="fill:#00a650;fill-opacity:1;fill-rule:nonzero;stroke:none"
         d="m 3349.52,1194.59 c -0.41,-7.36 -0.84,-17.34 -1.31,-29.94 -0.47,-12.6 -0.41,-22.29 0.18,-29.04 l 1.87,-12.39 c 4.86,-55.55 -14.42,-101.2 -57.88,-136.919 -43.4,-36.25 -95.74,-57.039 -157.03,-62.403 -43.1,-3.769 -82.34,-0.929 -117.71,8.524 -35.36,9.476 -63.96,28.418 -85.82,56.859 l 93.98,74.159 61.66,-40.92 c -1.79,-3.28 -11.5,-3.09 -29.09,0.61 -8.4,0.31 -16.78,0.36 -25.13,0.14 1.36,-15.57 13.06,-26.579 35.07,-33.02 22.54,-6.41 43.94,-8.73 64.2,-6.961 34.8,3.039 64.6,15.352 89.4,36.871 25.33,21.58 36.62,47.95 33.9,79.11 l -2.42,18.62 c -0.73,8.3 -1.37,15.59 -1.91,21.82 -0.55,6.21 -0.71,11.18 -0.51,14.85 l -1.69,1.43 c -17.72,-18.82 -38.53,-35.3 -62.4,-49.42 -23.41,-13.55 -47.33,-21.4 -71.73,-23.53 -33.76,-2.96 -61.45,2.48 -83.07,16.26 -21.13,14.38 -33.02,36.64 -35.66,66.76 -0.68,7.78 -0.77,17.72 -0.26,29.81 0.99,12.63 1.73,22.13 2.23,28.45 l 18.4,166.44 c 1.75,15.86 2.31,27.42 1.67,34.69 -0.72,8.31 -3.75,13.02 -9.08,14.12 -4.86,1.67 -15.86,1.76 -32.99,0.26 l 2.43,26.12 145.01,29.16 -27.56,-259.1 c -0.83,-8.44 -1.5,-15.83 -2,-22.15 -0.49,-6.31 -0.53,-11.82 -0.12,-16.49 1.23,-14.02 8.19,-24.66 20.86,-31.93 13.13,-6.71 28.02,-9.31 44.64,-7.86 20.77,1.82 39.34,7.88 55.71,18.21 16.88,10.36 31.07,24.7 42.55,42.98 l 31.56,285.35 94.76,11.43 -34.71,-320.96 v 0" /><path
         id="path76"
         style="fill:#7a715f;fill-opacity:1;fill-rule:nonzero;stroke:none"
         d="m 3869.52,907.852 c -1.88,-0.231 -3.99,0.027 -5.64,-0.114 -0.69,-0.066 -3.63,2.981 -2.53,3.942 0.65,0.519 4.95,0.851 8.31,1.898 0.1,12.82 -0.39,25.742 -1.58,38.774 l -6.24,69.438 c -6.88,3.06 -12.21,4.93 -3.31,18.74 0.59,1.02 0.92,1.66 1.37,2.37 l -0.51,5.47 c -2.27,0.29 -6.02,0.05 -10.54,1.62 -15.06,5.34 -15.21,-14.82 -7.92,-39.08 -0.15,0.42 8.34,-18.539 -5.04,-11.211 -0.32,0.18 -4.09,10.531 -5.68,11.991 2.09,-1.9 2.35,-13.749 -5.51,-6.99 -2.11,1.81 -0.36,7.19 -3.14,8.09 -5.3,1.74 -10.91,-3.88 -14.62,-1.77 -1.43,0.87 0.25,10.02 -1.25,10.45 -4.38,1.32 -10.02,-5.17 -12.02,-5.65 0.34,0.09 -1.08,6.06 -0.72,6.25 -7.61,-3.19 -11.75,-7.36 -6.67,-15.61 0.52,-0.76 2.97,5.29 1.32,6.51 4.24,-3.19 8.24,-9.22 9.65,-9.42 2.61,-0.34 5.76,4.62 8.15,3.07 4.63,-3.11 10.15,-11.999 10.46,-16.089 -2.04,1.508 -12.39,-2.191 -14.73,-1.41 -1.57,0.551 -9.99,11.619 -9.85,11.559 -4.26,1.58 -5.43,-5.879 -8.38,-1.008 0.3,-0.422 -5.67,25.828 0.15,33.948 0.5,0.75 15.89,9.44 2.42,15.08 -0.13,0.08 -4.32,-2.35 -8.49,-3.58 l 1.15,-12.97 c 0.04,-0.22 0.04,-0.43 0.09,-0.64 l 7.84,-86.612 C 3801.81,771.359 3672.68,616.469 3499.09,600.738 L 607.414,338.352 C 433.824,322.59 278.926,451.719 263.188,625.281 l -48.043,529.249 c -1.192,0.82 -1.059,2.08 -0.266,3.3 l -13.434,147.44 c -6.097,68.06 10.282,133.07 42.649,188.07 3.097,-0.67 5.683,-1.7 7.261,-1.03 7.04,2.97 6.208,9.57 10.797,11.17 -0.121,-0.07 4.582,-3.07 4.496,-1.26 -0.71,8.23 -14.445,-1.69 -16.46,-0.71 -0.188,0.08 -0.325,0.35 -0.504,0.45 2.199,3.57 4.453,7.13 6.828,10.57 1.613,-1.55 3.222,-2.92 4.211,-3.51 4.007,-2.51 12.761,-3.22 14.39,-2.77 -0.957,-0.27 8.133,7.26 9.703,8.45 0.981,0.75 1.5,11.82 0.102,15.52 -4.441,11.95 -15.152,-6.08 -17.797,-7.04 -0.476,-0.2 -1.73,-0.05 -3.074,0.18 14.191,18.82 30.191,36.21 48.121,51.51 -0.422,0.17 -0.871,0.05 -1.293,0.22 -7.98,3.2 5.176,9.79 10.781,7.61 0.985,0.78 2.055,1.48 3.094,2.26 -1.297,3.68 -2.891,7.46 -2.617,6.53 -4.262,17.08 3.152,6.31 6.715,-3.49 5.058,3.77 10.465,7.05 15.769,10.55 0.149,-2.17 0.301,-3.93 0.301,-3.93 0.289,-0.47 27.602,-9.74 25.82,-9.99 0.434,0.07 9.891,7.02 9.532,6.65 -0.25,-0.35 3.632,-2.53 1.796,-0.09 -2.441,3.31 -0.164,5.82 -0.472,6.42 -1.867,3.49 -9.918,11.47 -13.778,11.83 -4.648,0.52 -2.882,-6.9 -6.906,-7.74 -4.734,-0.97 -0.863,2.8 -4.898,4.43 18.824,11.26 38.992,20.54 60.199,27.68 0.328,-0.14 0.644,-0.31 0.644,-0.31 4.336,-1.65 3.286,-0.54 1.278,0.89 9.41,3.09 18.902,5.93 28.754,8.15 -0.184,1.04 -0.344,2.01 -0.426,2.66 -0.246,1.81 -0.477,3.28 -0.664,4.71 2.992,-0.1 5.594,0.11 5.988,0.42 1.461,1.38 1.227,4.58 0.656,7.5 0.293,-0.06 0.536,-0.15 0.875,-0.24 5.055,-1.3 20.774,-2.05 9.106,-11.8 8.609,1.46 17.215,2.9 26,3.67 l 7.738,0.73 c -0.461,-2.5 -0.422,-4.88 0.781,-6.58 3.747,-5.24 5.622,0.21 9.813,-3.36 0.121,-0.13 8.523,-9.9 10.062,-13.48 2.016,-4.91 -2.445,-2.73 -2.203,-5.32 0.434,-5.18 4.633,-4.64 3.137,-7.52 0.219,0.44 -6.512,-2.36 -6.547,-2.3 0.172,-0.51 0.789,-0.94 1.293,-1.39 C 349.617,1592.76 229.766,1447.45 244.66,1283.7 L 301.738,654.27 C 316.742,488.828 463.527,366.5 628.91,381.5 L 3470.1,639.289 c 119.18,10.813 215.75,90.191 254.89,195.531 -0.71,-0.332 -1.7,-0.16 -2.82,0.731 0,0 -7.51,7.679 -1.7,14.597 5.09,6.204 7.67,-1.25 7.36,-7.847 6.49,19.008 11.18,38.82 13.76,59.129 -2.67,-3.391 -7.43,-4.852 -11.01,5.09 -1.44,3.921 6.38,7.492 11.86,1.941 1.95,18.93 2.26,38.32 0.46,57.988 l -4.28,47.301 c -3.48,2.36 -9.16,7.52 -9.32,9.1 -0.17,0.72 3.01,5.77 7.55,10.3 l -3.72,41.61 c -0.72,0.85 -1.4,1.78 -2.11,3.4 1.34,-3.14 -8.21,14.4 -16.09,10.79 -3.5,-1.61 5.72,-8.71 3.08,-8.11 -3.43,0.82 -6.02,1.82 -8.2,2.95 l 0.64,-6.72 c 2.22,-4.32 3.75,-12.76 3.3,-13.65 -0.33,-0.88 -1.11,-1.27 -1.96,-1.51 l 7.16,-79.031 c 1.73,0 3.3,0.473 4.15,3.23 0.91,3.032 5.54,36.601 14.68,18.711 3.75,-7.351 -18.32,-43.55 -16.64,-38.05 -0.03,-0.122 -0.06,-0.219 -0.05,-0.379 16.53,-8.36 8.3,-6.102 -0.01,-0.051 -1.94,-7.231 4,-6.219 -0.22,-7.59 2.38,-33.828 -1.45,-66.762 -10.67,-97.66 2.28,-0.059 4.49,-0.942 5.1,-3.102 1.22,-4.777 -6.02,-4.629 -7.37,-5 -3.22,-9.668 -6.99,-19.109 -11.24,-28.34 1.58,0.071 2.98,-0.558 3.76,-2.308 1.15,-2.469 -5.92,-4.602 -7.87,-6.059 -0.13,-0.269 -0.25,-0.551 -0.37,-0.781 0.11,-0.191 0.23,-0.32 0.66,-0.461 -0.28,0.102 -0.44,0.301 -0.68,0.359 -41.87,-83.66 -124.57,-144.828 -224.12,-153.859 L 626.871,403.781 c -152.707,-13.89 -289.027,99.75 -302.863,252.481 l -57.125,629.468 c -0.567,6.23 -0.574,12.42 -0.731,18.61 2.211,-1.04 5.309,-2.1 5.309,-1.33 -0.039,1.81 -2.824,3.62 -5.473,4.8 -1.34,121.55 77.125,228.84 189.481,266.99 2.304,-1.09 5.023,-1.03 6.797,0.93 0.625,0.75 0.765,1.28 1.035,1.91 17.953,5.48 36.695,9.25 56.097,11 l 37.141,3.36 c 16.496,3.53 33.348,5.88 50.629,5.54 2.066,-0.03 4.137,-0.27 6.238,-0.4 l 18.438,1.67 c 0.867,-3.36 5.16,-2.47 8.191,-3.4 0.621,0 1.27,-0.1 1.891,-0.11 2.898,-0.05 5.695,-0.48 8.515,-0.83 3.278,2.92 7.168,0.94 8.278,3.32 -0.692,-1.19 -2.324,0.65 -3.785,3.15 l 11.773,1.06 c 0.008,-1.9 0.309,-3.13 0.574,-2.7 -2.441,-3.67 -7.597,-2.18 -4.195,-5.2 1.637,0.11 3.34,0.25 4.984,0.36 0.18,1.07 0.446,2.06 1.723,1.98 0.656,-0.08 1.16,-1.12 1.773,-1.73 5.133,0.35 10.262,0.64 15.426,1.1 -0.324,2.48 -0.476,5.01 -0.445,4.93 -1.438,1.63 -5.762,1.02 -9.176,2.25 l 322.819,29.28 c 0.91,-3.2 2.26,-6.14 2.78,-6.34 0.62,-0.18 3.61,3.95 5.75,7.12 l 110.82,10.06 c 0.04,-2.52 1.63,-5.35 3.84,-4.27 0.83,0.4 0.5,2.64 -0.13,4.55 l 2237.34,203.03 c 152.75,13.86 289.02,-99.78 302.91,-252.48 l 23.45,-258.34 0.33,0.07 c 6.09,-4.81 4.44,-8.65 0.73,-11.64 l 9.31,-102.47 c 5.81,-4.13 16.69,-8.92 5.59,-15.4 -7.04,-4.15 3.31,-4.16 -3.2,-8.85 -0.07,-0.05 -0.1,0.01 -0.23,-0.07 l 7.4,-81.46 c 3.79,0.57 8.76,1.83 15.47,-0.51 1.04,-0.38 -0.09,-8.09 1.03,-8.39 2.86,-0.74 4.95,-0.36 6.77,0.24 l -2.92,31.8 c -0.8,-0.64 -1.32,-1.41 -1.16,-1.99 -0.05,0.4 -3.6,7.9 -1.21,10.43 0.07,0.06 0.71,0.13 1.59,0.12 l -2.5,27.71 c -0.25,0.22 -0.58,0.57 -0.87,0.83 1.41,-6.93 -1.58,-24.9 -7.16,-19.71 0.72,0.35 -0.32,5.23 -1.52,10.81 -0.19,0.08 -0.31,0 -0.49,0.1 -1.01,0.51 -10.98,21.15 -9.79,28.5 0.59,3.56 9.41,-7.21 8.11,3.1 -0.48,4.24 3.88,10.01 8.72,9.05 l -2.8,31.49 c -0.06,0.17 -0.14,0.24 -0.2,0.41 -0.07,0.1 0.06,0.22 0.09,0.32 l -2.36,26.14 c -2.83,-2.8 -9.49,-5.91 -11.22,-2.69 -1.26,2.31 2.93,9.02 10.95,5.93 l -4.25,46.64 c -5.82,-5.8 -11.02,-20.76 -15.13,-0.57 -0.18,1.06 -4.62,18.66 11.31,11.95 0.1,-0.03 4.08,-5.15 2.86,-6.03 0.14,0.13 0.29,0.32 0.43,0.46 l -5.68,62.45 c -7.33,6.59 -20.66,20.12 -22.55,27.02 0.04,-0.22 -2.11,25.5 7.63,24.21 0.35,-0.04 -3.12,-19.96 4.88,-22.75 -0.48,0.18 3.28,0.99 7.29,1.82 l -8.09,89.55 c -1.02,1.6 -1.92,3.51 -2.46,5.73 -0.45,2 -0.06,5.61 1.11,9.22 l -0.86,9.38 c -4.14,1.43 -13.3,2.19 -10.89,-0.82 -3.61,4.53 5.72,7.54 10.48,5.12 l -5.73,63.05 c -15,165.44 -161.78,287.79 -327.21,272.78 L 738,1630.92 c 0.48,2.37 0.84,4.09 0.992,3.71 0.074,-0.13 -12.633,6.4 -14.191,6.4 1.09,0 -4.875,-7.71 -7.41,-7.45 1.363,-1.15 3.578,-2.37 5.367,-4.04 l -176.793,-16.07 c 0.625,2.9 -2.625,8.64 -5.246,3.51 -0.719,-1.52 0.582,-2.88 1.992,-3.8 l -17.473,-1.57 c -0.476,0.34 -0.668,0.62 -1.183,1 -11.789,8.05 12.129,-0.13 11.41,6.51 -0.524,4.27 -9.93,3.7 -13.934,10.1 -0.488,0.71 2.227,5.21 0.559,9.08 -5.824,13.58 -0.762,6.45 2.816,14.38 l 0.02,0.08 4.801,0.45 c -0.2,1.59 -0.375,3.25 -0.598,5.34 0.012,0.25 -0.184,0.46 -0.234,0.68 1.449,0.76 2.644,1.92 2.21,3.98 -0.679,3.07 -3.289,3.07 -5.875,3.3 0.055,0.21 -0.078,0.48 0.071,0.65 2.914,2.91 16.734,-2.95 21.75,-12.38 l 20.25,1.83 c 2.066,-3.33 1.047,-7.54 2.902,-8.76 6.34,-4.48 10.945,-4.96 15.633,1.66 4.016,5.69 -1.629,7.51 -7.602,8.12 l 17.567,1.53 c 2.746,-1.41 4.887,-0.99 6.418,0.65 l 18.551,1.69 c -5.77,7.97 -12.036,17.96 -12.598,23.24 0.043,-0.22 2.062,25.55 11.484,22.69 0.102,-0.03 -0.008,-0.44 -0.191,-1.12 -0.891,-0.6 -1.559,-1.15 -1.652,-1.51 -0.125,-0.85 0.195,-1.59 0.746,-2.25 -1.387,-5.95 -2.836,-15.62 2.214,-18.33 -0.863,0.47 16.231,0.59 16.915,1.4 -0.559,-0.71 0.062,3.54 0.871,8.14 0.39,-0.13 1.078,-0.26 1.336,-0.47 1.191,-0.99 1.843,-3.79 2.625,-6.7 -0.364,-0.38 -0.883,-0.96 -0.985,-1.14 -0.879,-0.18 -3.508,0.68 -3.847,0.17 -4.622,-7.35 -2.629,-12.71 4.71,-22.19 l 25,2.27 c -0.171,1.89 -0.683,3.87 -1.441,5.69 9.473,-0.93 -5.441,14.64 -7.945,7.04 -0.219,-0.62 -0.117,-1.22 0.09,-1.82 -2.805,0.41 -5.321,0.54 -5.817,1.98 2.992,1.46 4.875,5.39 4.004,9.12 2.383,3.08 3.895,5.79 -1.312,7.73 -1,0.35 -2.735,-0.51 -4.579,-1.76 -2.406,0.33 -4.886,-1.55 -6.929,-0.61 -2.129,0.95 -0.449,3.73 -2.418,4.73 -0.317,0.18 -0.977,0.23 -1.707,0.22 0.699,3.59 1.265,6.47 1.25,6.42 0.375,0.99 0.855,13.09 3.504,21.63 0.687,0.21 1.316,0.64 1.703,1.47 0.429,1.03 0.332,2.02 0.058,2.95 2.258,4.36 5.594,5.94 10.629,0.66 4.235,-4.56 -1.523,-8.01 -4.883,-12 -0.269,2.28 -2.035,4.62 -4.335,2.83 -2.743,-2.08 0.777,-6.02 -0.372,-5.44 1.286,-0.66 2.207,-0.72 2.93,-0.56 -0.176,-0.44 -0.355,-0.91 -0.379,-1.4 -0.039,-1.5 11.778,-21.05 7.625,-19.28 1.864,-0.79 10.922,5.44 8.703,8.04 8.356,-9.99 -3.172,-0.97 -2.613,-12.48 0.266,-4.05 7.531,-7.04 8.102,-8.78 1.531,-5.14 -1.078,-13.52 -2.27,-16.24 l 72.106,6.55 c 2.648,-0.99 8.468,-2.76 8.726,0.73 l -0.039,0.04 70.469,6.44 c -2.578,-2.46 -2.949,-11.22 2.332,-9.55 2.664,0.83 2.449,7.98 0.008,9.73 l 26.496,2.42 c -0.039,6.85 6.597,6 10.765,0.98 l 1.649,0.14 c 0.422,-0.17 0.742,-0.34 1.172,-0.48 0.668,-0.22 1.898,-3 2.554,-2.89 1.508,0.19 2.254,1.82 2.567,3.96 l 1884.009,170.9 c -0.83,1.16 -1.38,2.24 -1.32,3.22 0.22,8.57 2.27,-2.8 10.37,-1.67 5.59,0.69 14,9.96 26.99,8.35 -3.62,0.47 10.51,-4.64 15.02,-5.28 l 1.18,0.16 c 0.02,0.07 0.24,0.11 0.04,0.33 0.04,-0.04 -0.02,-0.26 0.07,-0.33 l 77.86,7.03 c 1.34,12.17 12.85,25.65 23.74,15.04 1.93,-1.9 -4.62,-6.77 -5.77,-10.29 0.68,-0.15 1.83,-1.29 3.19,-2.83 l 33.79,3.07 c 0.11,0.04 0.15,0.19 0.32,0.04 l 152.49,13.85 c -5.47,3.44 -9.88,11.82 -9.63,11.99 5.13,4.01 15.33,-6.63 15.76,-11.43 l 96.79,8.76 c -2.57,3.44 -4.33,7.16 -2.29,9.34 3.65,4.1 9.17,-2.45 11.51,-8.49 l 6.98,0.63 c 4.15,8.9 12.88,18.75 3.83,0.33 l 64.18,5.86 c 0.95,2.01 1.61,3.67 1.34,4.4 0.33,-0.9 -16.23,10.66 -13.22,10.66 -2.53,0.03 -6.14,-6.44 -4.57,-7.37 -9.15,5.28 0.82,3.07 -4.24,10.55 -0.85,1.11 -23,13.15 -17.5,18.18 1.68,1.58 29.55,-15.52 30.87,-16.96 -0.03,0.06 -1.4,-1.55 -1.54,-1.49 4.98,-2.16 23.8,5.19 17.69,-9.28 -2.82,-6.84 3.35,-2.85 2.79,-7.62 l 4.49,0.44 c -0.28,2.44 11.5,-0.2 4.56,6.91 -3.47,3.74 -3.2,14.07 4.82,13.32 0.2,-0.02 0.02,-9.23 -0.15,-8.9 3.17,-4.65 11.66,-7.49 18.79,-8.83 l 24.2,2.2 c 2.29,5.42 5.83,14.95 13.47,5.44 1.61,-1.94 -1.1,-2.36 -1.53,-1.46 -0.03,0.11 -0.82,-1.32 -1.76,-3.07 l 9.8,0.86 c -0.21,0.21 -0.56,0.44 -0.62,0.6 -3.39,11.61 13.59,9.21 13.59,10.15 0.13,2.64 -20.58,22.57 -11.33,27.01 0.9,0.46 5.9,-21.82 16.1,-10.74 8.11,8.72 10.01,-19.53 11.48,-21.04 4.92,-4.88 9.74,3.76 10.26,-3.61 3.22,0 6.39,0.21 9.61,0.16 0.77,0.54 1.33,1.28 2.48,1.52 1.53,0.24 3.09,-0.73 4.69,-1.93 3.5,-0.14 6.95,-0.44 10.42,-0.72 3.77,7.1 -9.09,3.74 -7.55,9.88 2.27,8.67 10.44,-1.79 7.57,7.3 -1.17,3.77 -3.18,8.31 4.57,7.33 6.35,-0.76 23.34,-1.37 9.12,8.79 -6.2,4.47 -27.29,-10.99 -32.86,-8.3 -5.29,2.56 2.7,12.98 3.22,11.85 -8.65,18.74 -36.16,-15.04 -43.09,2.37 -3.84,9.58 13.31,-1.73 13.31,-1.73 -1.49,-0.53 11.59,15.49 10.84,19.09 -0.9,4.2 -6.26,2.85 -8.86,6.13 -3.38,4.28 -8.69,12.02 -13.48,19.37 -0.69,-0.05 -1.31,-0.02 -2,-0.07 l -36.29,-3.3 c -0.67,-0.96 -1.58,-1.61 -2.95,-1.47 0.05,-0.04 -0.34,0.46 -0.73,1.13 l -44.5,-4.01 c -1.84,-2.6 -9.1,-4.27 -14.08,-1.3 l -2.76,-0.25 c 0.31,-2.68 -2.57,-4.54 -9.52,-3.09 -1.67,0.37 -3.43,0.97 -5.29,1.78 l -53.36,-4.84 c -0.96,-3.98 -2.78,-10.98 -1.18,-13.54 0.21,-0.37 7.67,-1.87 7.38,-4.68 -0.44,-3.58 -11.69,-10.65 -10.7,-13.15 7.75,-18.46 31.27,0.64 41.26,-21.67 -0.73,1.55 -2.32,-5.9 -1.66,-4.42 -2.68,-5.73 -11.08,11.06 -16.08,13.73 -0.19,0.07 -19.46,5.76 -23.67,3.43 -6.05,-3.32 -4,-36.64 -24.08,-11.41 -2.18,2.71 -5.25,13 1.78,16.31 0.29,0.11 8.27,-3.07 7.34,-4.59 6.56,10.46 5.51,31.39 -3.64,37.25 0.26,-0.2 -1.68,-4.36 -1.65,-4.42 5.71,-6.44 -5.43,4.18 -4.41,1.6 -0.66,1.81 -0.05,2.53 0.9,2.95 l -4.9,-0.42 c -0.36,-0.77 -0.98,-1.51 -1.9,-2.41 -1.44,-1.3 -3.01,0 -4.17,1.85 l -7.9,-0.72 c -0.41,-3.84 -0.86,-7.88 -4.44,-8.25 -5.18,-0.48 -6.49,3.15 -7.87,7.15 l -95.61,-8.7 c -0.82,-2.85 -0.43,-5.27 5.11,-5.37 0.15,-0.02 4.91,1.47 4.54,4.34 3.96,-27.13 -23.6,-10.46 -38.55,-1.6 l -2.92,-0.25 c -0.86,-0.87 -1.73,-1.78 -1.81,-1.71 -0.37,0.36 -0.8,0.89 -1.18,1.41 l -231.31,-20.96 c 6.3,-0.57 15.21,-1.46 13.38,-1.3 0.61,-0.03 10.54,-1.21 7.4,-4.6 -10.66,-11.27 -8.93,5.09 -19.37,1.85 -14.52,-4.5 -4.93,-9.49 -9.16,-11.66 -11.75,-6.21 -39.59,19.34 -2.73,11.91 0.79,-0.16 2.04,1.77 3.07,3.11 l -44.61,-4.02 c 0.83,-1.78 3.12,-3.53 2.81,-4.28 -2.3,-4.31 -8.94,3.12 -8.91,3.24 -2.82,-2.59 5.76,-15.76 11.45,-21.14 6.33,-5.83 18.76,-6.64 20.64,-9.32 4.24,-5.9 0.64,-9.64 2.77,-11.98 3.98,-4.37 11.05,-1.66 11.76,-6.17 0.82,-4.92 -9.44,-16.42 -9.23,-14.68 -0.35,-3.05 -0.2,-4.81 0.04,-5.86 -1.01,0.89 -3,1.79 -7.59,1.56 -10.78,-0.65 -1.11,-8.78 -10.41,-4.31 -7.14,3.45 3.79,1.95 0.15,8.93 -3.34,6.35 -48.33,34.27 -46.78,42.59 0.87,4.79 12.02,9.91 12.11,8.69 -0.17,1.71 -3.82,6.33 -7.43,10.11 L 966.031,1775.51 c 3.02,6.42 -17.777,7.57 -12.355,-1.11 l -10.887,-1.01 c 1.836,2.37 3.738,5.21 3.906,5.07 -2.277,2.35 -9.859,-0.72 -12.129,-3.75 -0.488,-0.65 -0.691,-1.4 -0.89,-2.15 l -25.25,-2.26 c 1.172,0.7 2.019,1.54 2.246,2.39 3.637,13.95 -23.961,4.5 -15.52,-3.59 l -84.64,-7.69 c 0.711,1.68 1.226,3.03 1.097,3.32 -4.273,10.04 -10.484,2.79 -11.863,-4.28 l -6.5,-0.6 c -2.453,4.04 -4.476,7.36 -4.269,7.36 -5.758,0.63 -0.821,-3.45 1.328,-7.66 l -141.024,-12.79 c 0.172,-3.06 -2.781,-9.03 -7.07,-4.47 -1.316,1.31 -1.066,2.62 -0.441,3.8 l -27.813,-2.5 c 0.074,0.27 0.051,0.58 0.191,0.71 2.45,2.95 9.879,0.99 14.11,7.24 0.512,0.77 1.418,7.44 -0.34,8.25 -0.781,0.39 -11.906,-8.15 -8.762,-7.64 -3.797,-0.59 -17.652,14.25 -19.668,4.99 0.559,2.45 10.418,-14.1 10.145,-11.64 0.086,-0.65 -0.926,-1.52 -2.028,-2.5 l -42.05,-3.81 c 0.922,-3.16 1.718,-6.42 0.34,-8.46 -1.2,-1.74 -2.696,-2.69 -4.219,-3.32 0.543,2.43 -0.504,5.88 -0.215,6.77 2.906,9.1 7.613,9.99 -1.352,7.38 0.954,0.26 -5.937,1.33 -7.464,-1.28 -2.094,-3.94 3.421,-9.91 5.765,-13.01 -4.488,0.32 -8.828,3.9 -9.742,10.39 l -8.914,-0.84 c -2.375,2.98 -5.945,4.98 -7.285,1.15 -0.184,-0.68 0.039,-1.21 0.09,-1.79 l -51.586,-4.67 c -3.141,-0.28 -6.078,-0.97 -9.25,-1.32 -1.59,1.42 -3.094,2.78 -4.246,3.93 -2.497,2.51 -11.332,13.4 -10.77,2.51 0.152,-4.09 3.023,-6.37 5.723,-7.77 -48.942,-6.8 -94.957,-21.93 -136.211,-44.5 3.133,-3.46 8.734,-5.82 10.828,-11.01 0.465,6.56 5.699,15.63 9.914,7.69 4.602,-8.83 -7.227,-6.02 3.867,-6.52 10.141,-0.4 -5.941,-14.24 -12.836,-5.79 -0.133,-7.69 -11.137,2.07 -16.418,12.88 -25.23,-14.23 -48.543,-31.18 -69.875,-50.24 4.731,0.58 9.688,-1.11 5.395,-6.25 -0.176,0.88 -7.285,-2.73 -9.418,-0.99 -1.035,0.77 -1.375,1.46 -1.715,2.15 -31.324,-29.18 -57.926,-63.26 -78.602,-100.83 -2.461,1.1 -4.906,2.07 -4.863,2.03 -9.848,5.94 -4.203,-5.79 0.141,-10.75 -6.391,-12.2 -12.145,-24.75 -17.254,-37.6 -1.422,0.12 -2.762,0.16 -3.492,-0.42 -4.536,-3.52 0.191,-2 -3.157,-6.15 -7.273,-8.89 -16.339,-6.44 -9.129,-13.1 0.422,-0.37 4.286,-2.24 8.11,-1.57 -4.055,-12.2 -7.414,-24.75 -10.238,-37.43 -0.383,-0.66 -0.457,-1.31 -0.481,-2.01 -3.312,-15.26 -5.812,-30.81 -7.348,-46.6 -1.011,-0.87 -1.046,-1.79 -0.308,-2.72 -1.613,-18.06 -1.813,-36.47 -0.906,-55.01 -5.629,4.42 -20.6215,5.52 -7.922,-2.97 2.328,-1.59 5.472,-5.01 8.281,-2.87 0.211,-3.47 0.316,-6.98 0.633,-10.45 L 181.16,617.828 C 201.039,398.59 395.539,236.391 614.816,256.309 L 3506.53,518.66 c 204.29,18.531 358.83,188.719 362.99,389.192 z M 3340.44,1966.64 c 10.82,4.51 -1.12,-3.76 8.66,-12.09 12.24,-10.44 9.17,2.76 8.66,-15.07 -0.23,-6.85 8.72,-11.66 4.12,-16.44 -4.89,-5.04 -13.65,-0.89 -19.26,1.88 -5.88,2.88 2.32,5.15 -4.32,10.49 -4.05,3.3 -9.54,-3.6 -10.35,1.72 -1.35,8.75 14.5,9.29 13.85,22 -0.04,0.6 -1.19,7.59 -1.36,7.51 z m -50.82,-10.87 c -5.17,-3.98 3.73,-17.36 -12.11,-8.72 -2.08,1.16 9.93,12.21 -8.54,15.08 -0.4,0.06 -6.1,1.3 -5.93,3.07 0.76,9.86 33.38,-4.26 26.58,-9.43 z m -169.73,-5.46 c 2.23,-1.77 5.57,-4.43 8.81,-7.48 0.51,-0.03 0.94,0.03 1.45,-0.21 1.23,-0.64 1.68,-1.7 1.68,-2.87 7.82,-8.26 13.32,-18.21 -0.71,-22.43 -4.44,-1.44 -4.39,1.49 -8.84,3.1 -4.5,1.65 -18.82,15.15 -19.01,16.77 -0.2,1.58 7.35,6.69 12.31,9.1 0.47,7.16 -7.52,13.06 4.31,4.02 z m -61.38,-18.13 c 4.61,2.87 16.94,14.75 14.81,-3.3 -0.3,-2.49 -5.95,-4.96 -4.62,-7.34 4.56,-8.24 18.49,-3.21 14.69,-9.24 -3.84,-6.17 -16.79,3.54 -20.72,6.33 -13.62,9.89 -13.09,8.01 -4.16,13.55 z m -61.57,-30.05 c 12.54,-6.56 1.13,-9.35 14.66,-6.22 -4,-0.95 -7.42,-1.72 -10.36,-2.37 9.01,1.77 18.92,3.44 19.36,2.2 1.49,-4.17 -6.43,-19.54 -18.2,-17.48 -3.29,0.54 -5.89,8.69 -7.38,13.8 -13.37,-2.94 -8.73,-1.74 -0.01,0.16 -0.64,2.25 -1.11,3.99 -1.2,4.04 -3.16,1.79 -4.55,-7.85 -10.44,-1.29 0.57,-0.61 -8.13,2.24 -7.39,4.64 0.04,0.12 13.29,6.5 20.96,2.52 z m -70.5,46.06 c 11.85,-5.85 -2.39,-14.18 5.55,-17.92 9.91,-4.73 4.2,9.64 16.7,13.03 14.04,3.88 22.16,-12.96 17.48,-18.21 -7.37,-8.11 -6.76,6.99 -22.36,1.94 0.73,0.22 2.55,-13.19 -10.57,-7.23 -10,4.6 2.22,5.98 -5.56,14.98 -1.9,2.2 -10.74,-0.5 -10.31,7.68 -0.02,0.31 9.49,5.54 9.07,5.73 z m -72.48,-49.09 c 10.36,8.01 10.06,17.74 18.09,8.54 4.57,-5.25 -8.76,-18.94 -10.83,-19.09 -6.66,-0.56 -0.37,3.5 -1.41,4.46 -3.83,3.75 -13.04,0.63 -8.72,12.06 -0.04,-0.14 2.13,-6.57 2.87,-5.97 z m -57.97,-0.33 c 3.96,-2.88 -1.52,-14.41 -1.82,-16.31 -0.18,-1.04 -0.24,-1.65 -0.32,-2.35 2.59,-1.97 -0.43,-5.87 0,0 -0.77,0.62 -2,1.08 -4.22,0.92 -11.11,-0.69 9.61,-18.83 -3.21,-11.78 -13.61,7.45 8.68,32.62 -8.55,18 -0.21,-0.21 -4.66,-0.73 -4.53,-1.39 -2.85,9.34 16.77,17.19 22.65,12.91 z m -131.72,-38.99 c -1.78,-4.15 -26.38,5.74 -29.52,12.49 -2.28,4.87 34.28,-1.34 29.52,-12.49 z M 766.223,1737.01 c 0.41,-13.6 -20.719,-0.09 -20.75,7.19 -0.196,9.34 20.593,-2.34 20.75,-7.19 z m -314.715,-22.52 c 3.117,-21.74 13.59,3.57 23.597,-2.34 -0.589,-0.29 -1.003,-0.66 -0.976,-1.33 -0.066,-0.65 0.644,-0.89 1.531,-1.08 -1.914,-3.44 -6.387,-11.63 -7.601,-9.92 1.433,-5.93 10.535,-0.28 9.906,-7.5 -0.406,-4.41 -17.238,-3.18 -8.953,-12.23 0.086,-0.1 4.511,-2.59 6.261,-0.3 -17.484,-22.38 -24.39,12.2 -28.214,28.59 -0.098,0.21 -4.231,-0.06 -4.231,0.15 -0.23,5.73 6.285,22.47 8.68,5.96 z m -78.746,-19.82 c 0.113,0.02 13.875,-5.1 16.289,-13.36 3.945,-13.61 -5.961,-7.3 5.668,-14.93 -3.629,2.34 -6.547,4.27 -9.153,6.01 7.575,-5.31 15.813,-11.44 15.293,-12.6 -1.371,-2.6 -8.863,-5.53 -15.769,-4.51 -0.336,2.61 -0.902,5.15 -4.738,4.44 -1.207,-0.25 -1.989,-0.64 -2.719,-1.04 -0.758,0.67 -1.473,1.3 -2.067,2.19 -1.878,2.69 2.215,10.22 4.922,14.88 -11.39,7.55 -7.359,5.14 0.02,0.07 1.168,2.03 2.199,3.55 2.133,3.67 -0.899,3.47 -8.836,-2.1 -8.153,6.68 -0.07,-0.86 -4.011,7.35 -1.726,8.5 z m -69.395,-47.66 c -0.332,-0.63 -1.441,-0.91 -2.679,-1.05 -6.719,6.36 -12.157,11.09 -9.461,4.26 0.375,-1.12 0.429,-2.07 0.277,-2.86 -2.25,0.73 -4.309,1.6 -4.859,2.47 -7.989,12.67 24.39,11.25 16.722,-2.82 z m -43.578,-84.42 c -7.105,-4 -11.48,6.85 -12.285,8.88 0.625,-1.56 -3.715,15.43 -1.348,16.9 12.875,8.25 25.348,-19.32 13.633,-25.78 z m -68.891,-35.07 c -0.07,1.29 -0.16,1.73 -0.316,2.29 0.34,-0.85 0.957,-1.84 2.477,-2.38 -4.696,1.67 20.511,0.46 20.988,-0.87 2.004,-5.32 -21.766,-17.96 -23.149,0.96 z m 47.516,27.51 c 2.016,0.32 -7.957,5.42 -15.387,9.33 -0.586,-0.23 -1.035,-0.38 -1.089,-0.21 -0.024,0.32 0.117,0.44 -0.004,0.76 -6.508,3.48 -10.192,5.82 0.015,2.59 1.293,11.26 30.934,-10.11 16.465,-12.47 z m -3.285,-29.35 c -3.016,6.21 11.234,22.91 17.43,16.12 2.093,-2.25 -11.407,-28.59 -17.43,-16.12 z M 3786.6,951.391 c 0,-0.391 7.72,-3.012 8.64,-1.121 1.88,4.281 -3.8,15.699 0.73,23.07 -2.15,-5.07 16.4,-3.02 17.35,2.449 0.96,5.57 -13.12,8.691 -1.49,12.52 -3.82,-1.239 29.26,-0.848 21.05,-16.539 0.78,1.531 -18.38,9.609 -16.2,-6.141 1.23,-9.188 8.63,-7.949 6.48,-18.32 -0.31,-1.348 1.89,-7.5 0.97,-8.368 -3.98,-3.613 -25.61,7.457 -26.3,7.411 -0.42,-0.024 -8.81,-12.704 -11.23,5.039 z M 3823,913.34 c -2.28,-3.262 -5.41,5.058 -6.77,3.461 -2.29,-2.539 1.06,-30.973 -7.39,-9.332 -2.49,6.25 -12.41,12.293 -12.96,19.57 -0.03,0.281 6.04,0.402 6.25,0.789 4.52,5.813 -11.23,9.742 0.61,12.762 0,0 0.18,-2.031 0.27,-2.102 2.12,-1.379 25.58,-9.136 27.12,-13.668 0.39,-1.269 -8.48,-13.379 -7.13,-11.48" /><path
         id="path78"
         style="fill:#7a715f;fill-opacity:1;fill-rule:nonzero;stroke:none"
         d="m 3481.24,1938.46 c 3.95,-3.14 3.92,2.59 8.91,-0.18 4.2,-2.33 2.64,-11.47 10.32,-7.65 10.97,5.64 2.75,-0.61 5.76,-6.05 3.62,-6.69 13.13,-6.12 13.87,-3.37 1.06,-6.32 -5.46,-26 8.3,-4.52 3.81,5.87 6.32,7.85 7.61,7.25 10.42,-4.98 -6.78,-9.78 -6.35,-17.7 0.34,-5.91 0.02,4.55 8.81,-6.13 6.43,-7.83 0.21,-11.65 1.12,-15.79 4.32,-1.97 8.53,-4.09 12.74,-6.23 5.68,-0.14 15.43,-1.4 15.37,-5.34 0,0.03 -1.06,-0.65 -2.44,-1.5 3.34,-1.94 6.6,-4.11 9.91,-6.12 -0.97,2.01 -1.56,5.62 -2.17,7.84 -1.61,-0.81 -2.65,-1.18 -2.37,-0.33 1.1,3.32 1.76,2.47 2.37,0.33 5.2,2.69 17.16,10.85 15.61,2.32 0.4,2.28 -3.29,-3.33 -10.57,-7.21 0.73,0.38 -0.12,-3.13 -1.09,-4.07 0.89,-0.56 1.74,-1.05 2.59,-1.58 2.6,-0.39 5.13,-1.82 4.64,-2.88 0,0 0.19,-0.08 0.22,-0.14 7.78,4.37 13.17,16.75 17.56,14.12 2.85,-1.78 -3.67,-17.01 -3.36,-17.8 2.23,-6.23 5.39,1.86 13.25,-4.71 1.38,-1.05 8.01,-17.62 9.69,-19.71 -0.09,0.03 -0.41,-0.38 -0.68,-0.6 4.44,-4.02 9,-7.92 13.23,-12.15 7.12,-5.08 15.73,-10.97 15.59,-9.95 1.16,-6.73 -1.77,-3.11 -5.41,-1.38 44.11,-49.05 73.74,-111.93 80.1,-182.31 l 3.13,-34.72 c 0.25,3.26 0.89,6.03 2.41,7.03 15.13,9.52 13.77,-38.27 19.64,-40.03 4.14,-1.24 2.32,12.15 2.89,10.98 7.71,-14.88 -3.64,-19.23 -11,-14.08 -5.03,3.56 -1.13,8.39 -6.16,16.24 -2.43,3.71 -4.93,1.58 -6.37,4.14 l 3.33,-36.48 c 1.26,-0.31 2.73,-0.26 4.72,0.74 1.13,0.55 3.1,6.73 3.42,6.75 3.4,0.29 16.55,-6.75 10.07,-13.62 -4.96,-5.33 -18.37,5.76 -15.36,4.56 -1.12,0.46 -1.98,0.56 -2.79,0.62 l 10.66,-116.64 c 0.99,-0.55 1.85,-1.04 2.08,-1.52 3.21,-6.45 -0.12,-19.86 -0.06,-16.94 0.02,-1.85 -0.06,-2.92 -0.04,-3.63 l 3.28,-36.68 c 4.03,-1.99 7.9,-5.05 8.57,-4.87 5.92,1.9 0.73,7.38 5.02,11.19 7.64,6.95 21.21,3.83 20.64,4.61 1.35,-1.76 -15.41,-13.45 -19.75,-15.12 -4.37,-5.8 -9.67,-13.37 -12.51,-17.91 l 2.3,-24.46 c 3.84,2.14 8.18,4.75 9.33,-0.09 0.42,-1.91 -3.94,-6.35 -8.36,-10.81 l 8.98,-99.05 c 4.89,-0.01 10.27,0.11 14.11,5.68 0.28,0.47 3.66,6.69 3.38,6.79 11.38,-2.92 -3.12,-2.31 -0.31,-14.91 3.45,-15.65 9,-3.3 -2.16,-17.18 -4.34,-5.34 -0.06,-14.6 -6.63,-15.63 -1.9,-0.32 -3.72,0.27 -5.33,1.25 l 1.09,-11.29 c 4.7,8.83 15.65,-1.93 16.25,-1.23 1.68,1.99 -2.93,30.4 7.09,28.39 1.09,-0.19 -8.43,-20.96 6.48,-18.3 11.71,2.14 -3.76,-21.64 -3.49,-23.71 1.04,-7.17 11.15,-2.24 5.44,-9.96 2.12,2.84 -9.09,5.47 -9.81,6.84 -4.55,-2.61 -1.71,-14.11 2.47,-16.21 4.9,-2.46 11.15,8.24 18.58,4.32 4.3,-2.19 1.85,-14.43 9.81,-11.49 9.11,3.36 -4.53,8.73 0.61,12.74 7.02,5.63 7.2,-7.65 10.44,1.33 1.31,3.71 2.4,8.56 8.11,3.08 3.46,-3.37 12.04,-10.35 13.4,-5.88 l -0.47,5.64 c -0.19,0.65 -0.23,1.05 -0.41,1.77 -2.34,7.34 -28.45,7.73 -31.26,13.16 -2.66,5.21 9.93,8.73 9.67,7.55 4.41,20.14 -37.91,9.72 -32.96,27.79 2.65,9.89 9.54,-9.42 9.54,-9.42 -1.48,0.48 18.61,5.41 20.13,8.75 1.88,3.91 -3.21,6.06 -3.3,10.22 -0.36,12.21 2.14,43.86 2.99,44.91 2.73,2.83 8.07,-6.77 13.38,-4.81 1.03,0.37 1.98,1.39 2.94,2.46 l -4.07,44.59 c -1.11,-0.66 -1.96,-1.53 -2.13,-2.93 0.12,0.85 -2.25,-14.62 -11.75,-7.75 -3.23,2.32 5,12.44 4.74,13.23 -0.98,3.34 -10.19,3.13 -11.17,5.08 -8.27,16.1 1.64,0.91 6.23,0.74 4.52,-0.21 -4.54,5.54 -0.99,8.33 3.9,3.12 9.54,-0.11 13.92,-4.3 l -17.05,188.08 c -5.43,1.85 -11.06,5.88 -11.67,9.42 -0.85,4.78 4.82,4.77 10.55,3.08 l -12.43,137 c -9.47,104.2 -58.66,195.23 -131,260.24 -5.87,-2.89 -11.68,-5.94 -12.24,-6.88 0.19,0.34 7.52,-15.62 -7.51,-4.36 -16.85,12.63 -5.95,18.16 0.26,27.78 -39.56,31.29 -84.96,55.13 -134.19,69.75 10.1,-4.6 3.97,-3.03 12.08,-16.24 0.79,-1.3 5.62,-2.72 8.77,-6.06 4.55,-4.76 4.27,-6.22 4.02,-6.56 0.21,0.2 1.29,0.53 4.85,0.44 8.95,-0.37 12.62,-10.72 21.96,-16.83 0,0 -1.21,6.93 -4.33,7.51 3.81,-0.72 20.39,-3.26 19.31,-1.85 7.24,-9.07 -0.15,-16.86 -4.83,-19.23 -10.94,-5.49 -21.52,9 -23.7,9.37 1.59,-0.24 -7.23,-6.8 -9.03,-5.72 -4.44,2.62 -7.46,15.63 -12.96,19.54 -2.36,1.68 -16.46,-1.28 -22.26,1.94 -11.32,6.26 -15.27,29.18 -23.26,27.29 -11.66,-2.75 1.75,-17.91 -10.58,-7.28 1.19,-0.99 -5.31,1.37 -4.45,1.64 -13.86,-3.59 -5.51,-20.91 3.93,-28.38 z m 314.53,-606.64 c 4.21,-3.44 -2.65,-23.45 -8.09,-20.07 -6.76,4.08 -5.5,31.48 8.09,20.07 z m -38.65,285.65 c 3.92,1.63 -0.46,-13.73 4.06,-16.48 8.68,-5.24 54.04,-33.15 39,-41.91 -5.57,-3.32 -24.72,17.97 -28.05,22.05 -9.19,10.92 -10.16,3.19 -15.37,21.44 0.73,-2.54 -6.4,11.98 0.36,14.9 z m -95.94,227.48 c -2.46,-0.43 -7.6,-8.16 -6.44,-9.67 -1.99,-0.06 -4.33,0.72 -7.39,3.1 -13.28,10.19 8.68,9.09 13.83,6.57 z m -33.86,35.51 c 2.51,-0.93 -7.5,4.77 -5.8,9.02 11.71,28.56 32.74,-18.94 5.8,-9.02 z m -17.26,30.08 c -1.95,-8.24 -12.53,1.94 -16.37,-1.12 -0.07,-0.08 -1.39,-6.37 -3.08,-5.88 -21.51,5.68 22.69,20.07 19.45,7" /><path
         id="path80"
         style="fill:#7a715f;fill-opacity:1;fill-rule:nonzero;stroke:none"
         d="m 704.203,1768.32 c -8.457,2.6 -1.125,-6.52 -1.32,-6.28 7.472,-8.79 3.535,5.63 1.32,6.28" /><path
         id="path82"
         style="fill:#7a715f;fill-opacity:1;fill-rule:nonzero;stroke:none"
         d="m 268.672,1668.11 c -1.781,0.17 -5.594,-4.16 -1.25,-4.44 3.68,-0.24 3.144,4.35 1.25,4.44" /><path
         id="path84"
         style="fill:#7a715f;fill-opacity:1;fill-rule:nonzero;stroke:none"
         d="m 111.289,1404.1 c 0.93,-0.4 10.399,6.02 10.434,5.76 -1.543,11.3 -18.489,-1.86 -10.434,-5.76" /><path
         id="path86"
         style="fill:#7a715f;fill-opacity:1;fill-rule:nonzero;stroke:none"
         d="m 534.207,1749.7 c -0.355,0.43 -0.844,0.93 -1.234,1.39 -1.371,-10.94 -0.508,-7.32 1.234,-1.39" /><path
         id="path88"
         style="fill:#7a715f;fill-opacity:1;fill-rule:nonzero;stroke:none"
         d="m 114.055,1498.84 c 1.914,-1.01 5.289,-1.6 5.406,-0.39 0.285,4.37 -11.68,3.57 -5.406,0.39" /><path
         id="path90"
         style="fill:#7a715f;fill-opacity:1;fill-rule:nonzero;stroke:none"
         d="m 444.656,1734.74 c -4.168,0.73 2.293,-5.99 1.516,-5.6 5.394,-2.78 0.668,5.2 -1.516,5.6" /><path
         id="path92"
         style="fill:#7a715f;fill-opacity:1;fill-rule:nonzero;stroke:none"
         d="m 571.871,1767.21 c 3.633,1.53 -2.937,9.03 -5.086,5.86 -1.176,-1.86 3.371,-6.64 5.086,-5.86" /><path
         id="path94"
         style="fill:#7a715f;fill-opacity:1;fill-rule:nonzero;stroke:none"
         d="m 683.699,1801.66 c -5.07,0.47 -2.847,-6.75 -1.5,-8.13 7.086,-7.12 2.918,7.98 1.5,8.13" /><path
         id="path96"
         style="fill:#7a715f;fill-opacity:1;fill-rule:nonzero;stroke:none"
         d="m 690.152,1762.88 c 5.723,-0.39 5.84,12.26 1.411,12.23 0.847,-0.91 -4.704,-7.87 -4.79,-8.36 -0.593,-2.81 3.739,-3.92 3.379,-3.87" /><path
         id="path98"
         style="fill:#7a715f;fill-opacity:1;fill-rule:nonzero;stroke:none"
         d="m 543.008,1745.46 c 2.222,3.65 -3.633,7.04 -7.02,9.71 -0.644,-1.83 -1.258,-3.72 -1.781,-5.47 3.477,-3.72 7.234,-6.96 8.801,-4.24" /><path
         id="path100"
         style="fill:#7a715f;fill-opacity:1;fill-rule:nonzero;stroke:none"
         d="m 558.754,1776.29 c 7.641,7.37 -2.336,0.6 -5.281,2.23 -3.422,1.77 -3.508,8.24 -5.926,6.78 -6.324,-4 -1.934,-6.42 2.047,-10.21 6.398,-6.01 5.625,-2.29 9.16,1.2" /><path
         id="path102"
         style="fill:#7a715f;fill-opacity:1;fill-rule:nonzero;stroke:none"
         d="m 529.152,1755.47 c 0.965,-1.04 2.297,-2.67 3.821,-4.38 0.226,1.84 0.558,4.04 0.89,6.84 -0.148,-0.77 0.809,-1.66 2.125,-2.76 1.711,5.03 3.746,9.13 5.375,5.9 -2.562,5.18 -21.789,12.98 -24.062,8 -2.125,-4.43 4.262,-2.7 6.832,-5.94 2.508,-3.06 2.965,-5.42 5.019,-7.66" /><path
         id="path104"
         style="fill:#7a715f;fill-opacity:1;fill-rule:nonzero;stroke:none"
         d="m 3721.05,1178.72 c -0.24,-0.11 0.61,-1.17 2.03,-2.7 -0.39,1.87 -0.99,3.13 -2.03,2.7" /><path
         id="path106"
         style="fill:#7a715f;fill-opacity:1;fill-rule:nonzero;stroke:none"
         d="m 3720.4,966.73 c 0.09,-0.05 0.29,-0.101 0.42,-0.191 -0.13,0.109 -0.29,0.262 -0.43,0.32 l 0.01,-0.129" /><path
         id="path108"
         style="fill:#7a715f;fill-opacity:1;fill-rule:nonzero;stroke:none"
         d="m 3720.82,966.539 c 0.13,-0.09 0.13,-0.109 0.26,-0.199 0,0.031 0.01,0.051 0.01,0.051 -0.14,0.058 -0.13,0.089 -0.27,0.148" /><path
         id="path110"
         style="fill:#7a715f;fill-opacity:1;fill-rule:nonzero;stroke:none"
         d="m 3717.59,1174.95 c -9.18,18.34 -5.77,3.88 -3.19,-7.83 6.6,-2.53 1.55,10.81 3.19,7.83" /><path
         id="path112"
         style="fill:#7a715f;fill-opacity:1;fill-rule:nonzero;stroke:none"
         d="m 70.3125,1215.65 c 0.7148,-0.24 0.6133,-0.42 -0.9023,-0.25 -0.0547,-0.01 0.3476,0.11 0.9023,0.25 -1.8164,0.8 -10.1289,2.37 -10.9609,-0.52 -0.3789,-1.23 3.7695,-2.44 3.5039,-2.08 6.0742,-9.72 17.3008,-1.41 10.2968,3.89 0.4297,-0.34 -1.5429,-0.91 -2.8398,-1.29" /><path
         id="path114"
         style="fill:#7a715f;fill-opacity:1;fill-rule:nonzero;stroke:none"
         d="m 3717.59,1174.95 c 0.74,-1.48 1.45,-2.94 2.38,-4.88 -1.4,2.92 -1.99,4.2 -2.38,4.88" /><path
         id="path116"
         style="fill:#7a715f;fill-opacity:1;fill-rule:nonzero;stroke:none"
         d="m 101.676,1491.46 c 18.543,0.31 -23.9377,20.49 -10.5197,6.15 3.6328,-3.91 7.5351,-6.23 10.5197,-6.15" /><path
         id="path118"
         style="fill:#7a715f;fill-opacity:1;fill-rule:nonzero;stroke:none"
         d="m 102.637,1302.54 c 1.558,-0.21 7.039,0.25 5.711,3.23 -2.114,4.75 -13.1058,-2.13 -5.711,-3.23" /><path
         id="path120"
         style="fill:#7a715f;fill-opacity:1;fill-rule:nonzero;stroke:none"
         d="m 2899.49,1869.9 c -0.05,0.42 0.31,0.98 0.5,1.47 -0.5,0.11 -0.71,-0.28 -0.5,-1.47" /><path
         id="path122"
         style="fill:#7a715f;fill-opacity:1;fill-rule:nonzero;stroke:none"
         d="m 3635.66,1920.48 c 4.22,-0.92 11.35,-15.05 1.18,-13.44 -13.87,2.18 -4.3,14.05 -1.18,13.44" /><path
         id="path124"
         style="fill:#7a715f;fill-opacity:1;fill-rule:nonzero;stroke:none"
         d="m 3606.73,1889.78 c -11.08,2.86 12.08,9.76 11.93,2.78 0.02,-2.09 -10.75,-3.07 -11.93,-2.78" /><path
         id="path126"
         style="fill:#7a715f;fill-opacity:1;fill-rule:nonzero;stroke:none"
         d="m 3630.85,1834.22 c -3.82,0.09 -4.82,10.55 -1.24,10.5 3.35,-0.09 10.87,-10.66 1.24,-10.5" /><path
         id="path128"
         style="fill:#7a715f;fill-opacity:1;fill-rule:nonzero;stroke:none"
         d="m 3762.33,1380.77 c -6.42,-3.79 -7.57,2.18 -9.32,7.31 -5.58,16.44 19.87,-1.12 9.32,-7.31" /><path
         id="path130"
         style="fill:#7a715f;fill-opacity:1;fill-rule:nonzero;stroke:none"
         d="m 3742.21,1600.83 c -6.88,4.41 10.57,-0.32 10.69,-0.85 1.05,-7.32 -6.32,-2.04 -10.69,0.85" /><path
         id="path132"
         style="fill:#7a715f;fill-opacity:1;fill-rule:nonzero;stroke:none"
         d="m 3765.3,1268.79 c -1.19,1.96 -2.74,8.98 3.37,6.75 3.61,-1.28 1.4,-14.76 -3.37,-6.75" /><path
         id="path134"
         style="fill:#7a715f;fill-opacity:1;fill-rule:nonzero;stroke:none"
         d="m 3779.07,1628.57 c -1.32,1.08 0.27,-9.87 -5.25,-9.12 -7.71,1.1 0.02,13.25 5.25,9.12" /><path
         id="path136"
         style="fill:#7a715f;fill-opacity:1;fill-rule:nonzero;stroke:none"
         d="m 3787.89,1239.73 c 0.11,-0.16 0.11,13.44 7.06,11.45 5.8,-1.66 -2.12,-16.08 -7.06,-11.45" /><path
         id="path138"
         style="fill:#7a715f;fill-opacity:1;fill-rule:nonzero;stroke:none"
         d="m 3791.24,1492.31 c -0.19,-0.31 -5.76,-0.9 -6.24,-0.77 -13.7,4.58 13.61,10.06 6.24,0.77" /><path
         id="path140"
         style="fill:#7a715f;fill-opacity:1;fill-rule:nonzero;stroke:none"
         d="m 3791.78,1541.11 c -0.26,0.98 6.75,9.86 10.2,3.34 2.47,-4.77 -6.52,-17.75 -10.2,-3.34" /><path
         id="path142"
         style="fill:#7a715f;fill-opacity:1;fill-rule:nonzero;stroke:none"
         d="m 3722.78,1188.32 -1.37,14.67 c -1.42,-1.8 -2.84,-3.63 -2.89,-3.41 -0.17,-3.36 1.75,-7.44 4.26,-11.26" /><path
         id="path144"
         style="fill:#7a715f;fill-opacity:1;fill-rule:nonzero;stroke:none"
         d="m 3597.06,1851.32 c 1.12,-0.65 1.63,-1.25 2.59,-1.95 -0.11,0.34 -0.71,0.84 -2.59,1.95" /><path
         id="path146"
         style="fill:#7a715f;fill-opacity:1;fill-rule:nonzero;stroke:none"
         d="m 3604.77,1844.41 c -1.03,1.58 -2.58,3.19 -5.12,4.96 0.04,-0.24 -0.57,-0.19 -1.46,-0.03 2.21,-1.63 4.44,-3.21 6.58,-4.93" /><path
         id="path148"
         style="fill:#7a715f;fill-opacity:1;fill-rule:nonzero;stroke:none"
         d="m 3455.77,1931.5 c -7.36,3.38 4.61,-12.31 4.26,-10.48 -5.92,4.48 0.81,8.24 -4.26,10.48" /><path
         id="path150"
         style="fill:#7a715f;fill-opacity:1;fill-rule:nonzero;stroke:none"
         d="m 334.898,1566.93 c -4.925,1.4 -10.168,-10.79 -2.609,-10.71 5.375,0.07 7.731,9.26 2.609,10.71" /><path
         id="path152"
         style="fill:#7a715f;fill-opacity:1;fill-rule:nonzero;stroke:none"
         d="m 271.109,1473.65 c -1.644,5.12 -4.527,-2.53 -10.929,0.74 -6.766,3.46 -11.84,0.84 -7.571,-4.96 5.68,-7.92 20.786,-3.18 18.5,4.22" /><path
         id="path154"
         style="fill:#7a715f;fill-opacity:1;fill-rule:nonzero;stroke:none"
         d="m 879.602,1784.81 c 14.281,-9.78 -1.629,17.03 -3.559,2.05 -0.172,-1.59 3.551,-2.07 3.551,-2.07 l 0.008,0.02" /><path
         id="path156"
         style="fill:#7a715f;fill-opacity:1;fill-rule:nonzero;stroke:none"
         d="m 845.285,1777.08 c 6.41,-2.47 9.914,0.88 10.469,5.67 1.141,10.46 -26.664,0.62 -10.469,-5.67" /><path
         id="path158"
         style="fill:#7a715f;fill-opacity:1;fill-rule:nonzero;stroke:none"
         d="m 889.914,1802.33 c 0.242,0.14 0.336,7.27 -3.187,7.51 -5.106,0.35 0.707,-9 3.187,-7.51" /><path
         id="path160"
         style="fill:#7a715f;fill-opacity:1;fill-rule:nonzero;stroke:none"
         d="m 3460.03,1921.02 c 0.57,-2.93 -0.4,-3.84 -0.99,-4.1 0.55,0.12 2.01,0.12 5.34,-0.44 16.16,-2.77 5.09,-2.56 -4.35,4.54" /><path
         id="path162"
         style="fill:#7a715f;fill-opacity:1;fill-rule:nonzero;stroke:none"
         d="m 788.523,1772.11 c 0.758,1.85 -5.046,7.93 -5.308,3.66 -0.375,-4.89 4.695,-3.42 5.308,-3.66" /><path
         id="path164"
         style="fill:#7a715f;fill-opacity:1;fill-rule:nonzero;stroke:none"
         d="m 706.648,1780.17 c 3.172,0.4 8.418,4.24 9.43,6.47 -2.242,-0.99 -12.64,3.67 -14.265,0.13 -1.723,-3.91 5.007,-6.16 4.835,-6.6" /><path
         id="path166"
         style="fill:#7a715f;fill-opacity:1;fill-rule:nonzero;stroke:none"
         d="m 3418.34,1994.81 c -0.21,0.18 -0.29,0.26 -0.51,0.42 -2.73,0.08 -5.48,0.12 -8.19,0.11 -1.32,-3.02 -3.27,-6.4 -4.7,-4.74 6.7,-7.57 22.04,-2.74 13.4,4.21" /><path
         id="path168"
         style="fill:#7a715f;fill-opacity:1;fill-rule:nonzero;stroke:none"
         d="m 1030.51,1803.81 c -1.87,-0.38 -6.74,-8.04 -1.45,-8.13 1.66,0.02 4.08,8.65 1.45,8.13" /><path
         id="path170"
         style="fill:#7a715f;fill-opacity:1;fill-rule:nonzero;stroke:none"
         d="m 938.93,1785.37 c 2.976,9.74 -18.532,10.59 -9.926,1.57 -1.098,1.15 10.226,-0.45 9.926,-1.57" /><path
         id="path172"
         style="fill:#7a715f;fill-opacity:1;fill-rule:nonzero;stroke:none"
         d="m 972.383,1807.74 c 2.183,-1.55 2.285,-7.97 3.957,-8.5 4.387,-1.3 10.875,3.7 10.48,5.72 -2.558,10.65 -17.406,7.24 -18.8,3.01 1.054,1.02 5.05,-0.76 4.363,-0.23" /><path
         id="path174"
         style="fill:#7a715f;fill-opacity:1;fill-rule:nonzero;stroke:none"
         d="m 651.309,1660.59 c -1.438,-2.65 2.089,-8.51 6.695,-9.56 10.379,-2.42 -2.234,17.65 -6.695,9.56" /><path
         id="path176"
         style="fill:#7a715f;fill-opacity:1;fill-rule:nonzero;stroke:none"
         d="m 616.828,1635.54 c -3.933,1.62 -15.469,-6.88 -9.828,-10.29 7.777,-4.73 16.098,7.68 9.828,10.29" /><path
         id="path178"
         style="fill:#7a715f;fill-opacity:1;fill-rule:nonzero;stroke:none"
         d="m 629.871,1667.53 c 4.465,1.72 -1.074,9.96 -4.047,6.63 -1.379,-1.48 1.828,-7.54 4.047,-6.63" /><path
         id="path180"
         style="fill:#7a715f;fill-opacity:1;fill-rule:nonzero;stroke:none"
         d="m 637.051,1637.84 c 0.426,-0.16 0.578,1.18 0.793,1.98 -0.645,0.11 -0.856,0.32 0.273,0.65 -0.097,0 -0.172,-0.27 -0.273,-0.65 1.801,-0.25 7.195,0.46 6.824,2.98 -0.824,6.22 -14.633,7.87 -15.074,7.39 -2.809,-3.51 4.535,-11.41 7.457,-12.35" /><path
         id="path182"
         style="fill:#7a715f;fill-opacity:1;fill-rule:nonzero;stroke:none"
         d="m 890.516,1662.72 c -6.661,-1.38 -6.84,-7.89 -4.364,-10.65 13.403,-15.19 19.133,13.74 4.364,10.65" /><path
         id="path184"
         style="fill:#7a715f;fill-opacity:1;fill-rule:nonzero;stroke:none"
         d="m 759.34,1638.72 c 3.043,-2.4 9.957,-5.92 12.762,-0.87 4.031,7.27 -23.348,9.12 -12.762,0.87" /><path
         id="path186"
         style="fill:#7a715f;fill-opacity:1;fill-rule:nonzero;stroke:none"
         d="m 787.93,1670.53 c -7.27,0.8 0.379,-7.9 -1.321,-6.3 7.434,-6.98 3.192,6.11 1.321,6.3" /><path
         id="path188"
         style="fill:#7a715f;fill-opacity:1;fill-rule:nonzero;stroke:none"
         d="m 891.023,1683.64 c -2.347,-1.99 0.887,-8.94 4.813,-9.42 4.723,-0.61 -0.539,13.12 -4.813,9.42" /><path
         id="path190"
         style="fill:#7a715f;fill-opacity:1;fill-rule:nonzero;stroke:none"
         d="m 3709.23,1090.19 c 5.19,2.09 5.26,14.79 5.98,13.6 -0.29,0.47 -3.26,1.04 -7.31,1.44 l 1.33,-15.04" /><path
         id="path192"
         style="fill:#7a715f;fill-opacity:1;fill-rule:nonzero;stroke:none"
         d="m 540.418,1625.18 c -0.07,0.14 1.035,0.76 0.961,0.86 -1.129,2.01 9.043,-1.96 9.863,-1.61 6.621,2.39 8.098,8.5 8.051,10.43 -0.168,9.09 -20.141,-5.47 -18.875,-9.68" /><path
         id="path194"
         style="fill:#7a715f;fill-opacity:1;fill-rule:nonzero;stroke:none"
         d="m 599.133,1644.02 c -0.664,-3.25 3.777,-7.07 7.637,-8.75 16.191,-6.73 -4.196,25.1 -7.637,8.75" /><path
         id="path196"
         style="fill:#7a715f;fill-opacity:1;fill-rule:nonzero;stroke:none"
         d="m 970.523,1659.15 c 0.133,0.49 2.567,-4.02 3.434,-3.88 8.543,1.61 -1.445,13.22 -3.434,3.88" /><path
         id="path198"
         style="fill:#7a715f;fill-opacity:1;fill-rule:nonzero;stroke:none"
         d="m 380.488,1675.75 c 1.453,-0.99 3.184,-2.1 5.078,-3.36 -1.8,1.24 -3.418,2.37 -5.058,3.43 l -0.02,-0.07" /><path
         id="path200"
         style="fill:#7a715f;fill-opacity:1;fill-rule:nonzero;stroke:none"
         d="m 223.027,1564.36 c 1.192,0.56 3.125,1.76 3.172,1.75 -1.621,0.53 -2.965,0.97 -4.25,1.39 -0.058,-0.79 -0.144,-1.49 -0.015,-2.59 0.363,-0.18 0.726,-0.37 1.093,-0.55" /><path
         id="path202"
         style="fill:#7a715f;fill-opacity:1;fill-rule:nonzero;stroke:none"
         d="m 3721.79,1049.54 c -3.37,3.35 -5.57,10.25 -1.54,12.5 6.11,3.41 8.56,-19.69 1.54,-12.5" /><path
         id="path204"
         style="fill:#7a715f;fill-opacity:1;fill-rule:nonzero;stroke:none"
         d="m 3737.78,881.941 c -5.51,-2.531 -13.35,9.399 -14.78,17.25 -3.03,16.25 18.63,-15.48 14.78,-17.25" /><path
         id="path206"
         style="fill:#7a715f;fill-opacity:1;fill-rule:nonzero;stroke:none"
         d="m 3709.64,1255.73 c 7.48,-0.03 -1.27,-18.93 1.93,-19.6 -4.07,-1.41 -8.86,0.53 -9.06,8.1 -0.16,5.81 -0.71,11.52 7.13,11.5" /><path
         id="path208"
         style="fill:#7a715f;fill-opacity:1;fill-rule:nonzero;stroke:none"
         d="m 3679.45,1453.37 c 0.67,-1.38 -0.71,11.89 5.48,7.05 1.84,-1.45 -0.47,-16.87 -5.48,-7.05" /><path
         id="path210"
         style="fill:#7a715f;fill-opacity:1;fill-rule:nonzero;stroke:none"
         d="m 3675.9,1482.61 c 7.59,9.71 13.45,-16.16 3.09,-8.06 -0.48,0.36 -5,5.6 -3.09,8.06" /><path
         id="path212"
         style="fill:#7a715f;fill-opacity:1;fill-rule:nonzero;stroke:none"
         d="m 3311.53,1938.95 c -3.45,-0.66 -5.39,2.17 -7.23,7.55 0.14,-0.27 -1.45,-1.14 -1.52,-1.43 0.04,14.7 20.49,-4.04 8.75,-6.12" /><path
         id="path214"
         style="fill:#7a715f;fill-opacity:1;fill-rule:nonzero;stroke:none"
         d="m 3274.68,1940.35 c -2.42,-3.59 -7.44,-4.85 -12.09,1.06 -3.67,4.54 -7.55,8.73 -1.29,13.44 6.08,4.45 10.41,-15.89 13.38,-14.5" /><path
         id="path216"
         style="fill:#7a715f;fill-opacity:1;fill-rule:nonzero;stroke:none"
         d="m 3258.64,1969.76 c 3.84,0.74 -1.32,-14.03 -6.17,-11.76 -2.49,1.16 -3.48,9.9 6.17,11.76" /><path
         id="path218"
         style="fill:#7a715f;fill-opacity:1;fill-rule:nonzero;stroke:none"
         d="m 3216.27,1931.95 c 3.48,-0.57 6.76,-22.49 -3.29,-11.89 1.95,-2.02 -6.91,13.42 3.29,11.89" /><path
         id="path220"
         style="fill:#7a715f;fill-opacity:1;fill-rule:nonzero;stroke:none"
         d="m 3164.28,1937.45 c 0.55,0.87 -8.89,0.18 -8.94,0.21 -16.79,6.04 14.74,9.21 8.94,-0.21" /><path
         id="path222"
         style="fill:#7a715f;fill-opacity:1;fill-rule:nonzero;stroke:none"
         d="m 3107.89,1944.55 c -0.18,-6.29 -6.97,-0.78 -8.95,0.19 -10.3,5.21 9.06,5.48 8.95,-0.19" /><path
         id="path224"
         style="fill:#7a715f;fill-opacity:1;fill-rule:nonzero;stroke:none"
         d="m 3022.21,1900.14 c 4.65,6.71 13.54,-7.66 7.21,-10.51 -3.39,-1.59 -9.37,7.53 -7.21,10.51" /><path
         id="path226"
         style="fill:#7a715f;fill-opacity:1;fill-rule:nonzero;stroke:none"
         d="m 2957.79,1952.04 c 2.64,6.34 14.16,-3.82 5.76,-6.07 -4.13,-1.08 -6.88,3.43 -5.76,6.07" /><path
         id="path228"
         style="fill:#7a715f;fill-opacity:1;fill-rule:nonzero;stroke:none"
         d="m 2874.28,1871.89 c -5.62,-11.83 -2.38,4.72 -8.88,3.16 -4.4,-1.08 -7.4,-5.3 -7.63,-7.5 1.5,-0.63 2.23,-1.01 1.53,-1.29 -1.37,-0.44 -1.64,0.26 -1.53,1.29 -4.1,1.76 -13.9,4.98 -11.62,9.41 2.04,4.13 31.36,1.74 28.13,-5.07" /><path
         id="path230"
         style="fill:#7a715f;fill-opacity:1;fill-rule:nonzero;stroke:none"
         d="m 2836.89,1935.16 c 1.11,-2.63 -3.35,-5.89 -6.04,-5.84 -11.48,0.24 2.04,15 6.04,5.84" /><path
         id="path232"
         style="fill:#7a715f;fill-opacity:1;fill-rule:nonzero;stroke:none"
         d="m 2826.18,1921.99 c 0.62,-0.06 12.53,-13.79 2.8,-8.97 2.56,-1.31 -11.71,10.24 -2.8,8.97" /><path
         id="path234"
         style="fill:#7a715f;fill-opacity:1;fill-rule:nonzero;stroke:none"
         d="m 2810.7,1892.54 c 3.56,10.18 18.8,-5.53 7.31,-7.63 -4.02,-0.66 -8.68,3.68 -7.31,7.63" /><path
         id="path236"
         style="fill:#7a715f;fill-opacity:1;fill-rule:nonzero;stroke:none"
         d="m 2737.07,1856.84 c -4.33,-7.24 -9.43,-2.18 -14.82,3.3 -17.58,17.83 22.32,8.99 14.82,-3.3" /><path
         id="path238"
         style="fill:#7a715f;fill-opacity:1;fill-rule:nonzero;stroke:none"
         d="m 2627.42,1876.91 c -0.03,0.27 -11.34,3.09 -13.3,4.73 -11.36,9.4 12.72,4.16 13.3,-4.73" /><path
         id="path240"
         style="fill:#7a715f;fill-opacity:1;fill-rule:nonzero;stroke:none"
         d="m 954.66,1775.18 c 0.285,-0.29 0.684,-0.37 1.035,-0.62 l -1.918,-0.16 c 0.145,0.14 0.922,0.74 0.922,0.74 l -0.039,0.04" /><path
         id="path242"
         style="fill:#7a715f;fill-opacity:1;fill-rule:nonzero;stroke:none"
         d="m 777.367,1707.19 c -3.297,-2.6 -11.945,-5.2 -12.648,-5.87 1.484,1.47 0.871,-17.11 -6.801,-10.24 -2.129,1.95 13.094,20.72 17.422,20.19 0.656,-1.43 1.324,-2.82 2.027,-4.08" /><path
         id="path244"
         style="fill:#7a715f;fill-opacity:1;fill-rule:nonzero;stroke:none"
         d="m 728.707,1747.04 c -0.324,-0.26 -5.863,0.03 -6.273,0.24 -12.801,6.76 14.968,7.74 6.273,-0.24" /><path
         id="path246"
         style="fill:#7a715f;fill-opacity:1;fill-rule:nonzero;stroke:none"
         d="m 618.645,1732.76 c 1.546,-1.79 -3.192,-16.58 -6.622,-6.08 0.524,-1.56 1.301,11.85 6.622,6.08" /><path
         id="path248"
         style="fill:#7a715f;fill-opacity:1;fill-rule:nonzero;stroke:none"
         d="m 589.066,1681.35 c 2.133,0.21 3.676,-0.05 4.95,-0.54 -0.629,-3.13 -0.762,-7.68 -0.164,-7.21 0.074,0.11 -1.407,0.4 -3.332,0.76 0.16,0.22 0.293,0.31 0.406,0.57 -0.274,-0.45 -2.742,6.25 -1.86,6.42" /><path
         id="path250"
         style="fill:#7a715f;fill-opacity:1;fill-rule:nonzero;stroke:none"
         d="m 588.961,1669.35 c 2.777,-1.12 -0.711,-3.25 2.312,-6.53 -0.007,-0.02 0.043,-0.03 0.079,-0.09 -3.184,-2.17 -6.836,-1.45 -8.918,5.72 2.839,0.89 5.41,1.37 6.527,0.9" /><path
         id="path252"
         style="fill:#7a715f;fill-opacity:1;fill-rule:nonzero;stroke:none"
         d="m 509.172,1664.78 c 0.512,2.9 1.469,5.68 3.625,5.01 0.82,-0.22 1.277,-1.25 1.445,-2.58 -1.539,-1.46 -3.367,-2.06 -5.07,-2.43" /><path
         id="path254"
         style="fill:#7a715f;fill-opacity:1;fill-rule:nonzero;stroke:none"
         d="m 513.234,1710.62 c -2.914,1.37 -3.808,-4.7 0.278,-7.69 -0.449,-0.54 -0.692,-1.22 -1.438,-1.49 -2.652,-0.98 -11.355,13.52 -11.945,17.32 -1.852,11.94 9.281,1.07 13.105,-8.14" /><path
         id="path256"
         style="fill:#7a715f;fill-opacity:1;fill-rule:nonzero;stroke:none"
         d="m 486.418,1698.46 c 0.082,-0.07 0.176,-0.12 0.219,-0.16 -0.555,0.85 -10.539,-1.47 -12.61,0.49 -3.55,3.45 1.481,3.58 6.176,2.48 2.156,-0.87 4.527,-1.34 6.215,-2.81" /><path
         id="path258"
         style="fill:#7a715f;fill-opacity:1;fill-rule:nonzero;stroke:none"
         d="m 468.184,1731.32 c 1.113,-0.12 2.136,-0.55 3.214,-1.19 -1.609,-0.18 -3.089,-0.48 -4.64,-0.64 0.258,0.98 0.719,1.92 1.426,1.83" /><path
         id="path260"
         style="fill:#7a715f;fill-opacity:1;fill-rule:nonzero;stroke:none"
         d="m 405.105,1661.66 c 8.036,1.26 3.825,-15.03 -2.656,-12.44 -3.441,1.32 -1.011,11.95 2.656,12.44" /><path
         id="path262"
         style="fill:#7a715f;fill-opacity:1;fill-rule:nonzero;stroke:none"
         d="m 374.898,1644 c 7.645,5.25 5.582,-11.74 -2.628,-10.38 -2.54,0.42 4.484,11.7 2.628,10.38" /><path
         id="path264"
         style="fill:#7a715f;fill-opacity:1;fill-rule:nonzero;stroke:none"
         d="m 357.848,1640.55 c 11.324,3.05 3.828,-19.51 -2.641,-12.58 -3.422,3.73 -1.73,11.39 2.641,12.58" /><path
         id="path266"
         style="fill:#7a715f;fill-opacity:1;fill-rule:nonzero;stroke:none"
         d="m 323.98,1635.64 c 0.059,-0.18 -0.085,-0.32 -0.078,-0.48 -2.644,-1.52 -5.117,-3.38 -6.613,-3.14 -0.898,0.14 -2.559,1.31 -4.351,2.78 3.574,2.45 9.953,3.76 11.042,0.84" /><path
         id="path268"
         style="fill:#7a715f;fill-opacity:1;fill-rule:nonzero;stroke:none"
         d="m 294.77,1592.61 c 2.277,-6.62 -6.743,-12.15 -11,-10 -6.047,3.05 8.445,17.55 11,10" /><path
         id="path270"
         style="fill:#7a715f;fill-opacity:1;fill-rule:nonzero;stroke:none"
         d="m 282.488,1551.05 c -2.496,-3.88 -8.164,-7.59 -12.508,2.62 -7.359,17.34 16.422,3.43 12.508,-2.62" /><path
         id="path272"
         style="fill:#7a715f;fill-opacity:1;fill-rule:nonzero;stroke:none"
         d="m 205.066,1562.72 c -1.05,-0.99 -5.89,2.08 -6.257,2.46 -6.989,7.3 14.89,5.5 6.257,-2.46" /><path
         id="path274"
         style="fill:#7a715f;fill-opacity:1;fill-rule:nonzero;stroke:none"
         d="m 178.652,1184.85 c 0.5,-2.39 6.508,9.18 10.664,3.72 2.653,-3.49 -8.621,-14.33 -10.664,-3.72" /><path
         id="path276"
         style="fill:#7a715f;fill-opacity:1;fill-rule:nonzero;stroke:none"
         d="m 191.352,1236.94 c -0.043,0.22 1.382,11.74 8.628,3.85 1.368,-1.49 -6,-13.84 -8.628,-3.85" /><path
         id="path278"
         style="fill:#7a715f;fill-opacity:1;fill-rule:nonzero;stroke:none"
         d="m 3849.38,922.941 c -1.6,-0.921 -9.3,3.09 -11.24,4.989 -9.51,9.718 19.89,0.129 11.24,-4.989" /><path
         id="path280"
         style="fill:#7a715f;fill-opacity:1;fill-rule:nonzero;stroke:none"
         d="m 3786.23,866.57 c -5.06,-1.019 -0.58,12.559 0.61,12.75 4.17,0.789 2.74,-12.09 -0.61,-12.75" /><path
         id="path282"
         style="fill:#7a715f;fill-opacity:1;fill-rule:nonzero;stroke:none"
         d="m 3795.95,821.141 c -0.82,1.019 -4.43,4.609 -3.09,8.078 2.34,6.179 11.61,-18.809 3.09,-8.078" /><path
         id="path284"
         style="fill:#7a715f;fill-opacity:1;fill-rule:nonzero;stroke:none"
         d="m 3832.03,891.172 c -5.95,2.988 6.7,9.066 9.92,5.367 3.13,-3.469 -4.75,-8.008 -9.92,-5.367" /><path
         id="path286"
         style="fill:#7a715f;fill-opacity:1;fill-rule:nonzero;stroke:none"
         d="m 3864.5,867.559 c 0.37,0.793 -18.99,-7 -20.36,-6.707 -0.65,0.117 -0.13,5.726 -0.72,6.25 -0.04,0.039 -3.81,4.636 -2.86,6.019 5.34,8.09 5.36,-2.922 8.83,-3.152 1.32,-0.117 20.81,9.562 15.11,-2.41" /><path
         id="path288"
         style="fill:#7a715f;fill-opacity:1;fill-rule:nonzero;stroke:none"
         d="m 3851.01,1120.16 c -3.87,7.1 -3.74,-12.59 -2.93,-10.94 -2.04,7.15 5.63,6.09 2.93,10.94" /><path
         id="path290"
         style="fill:#7a715f;fill-opacity:1;fill-rule:nonzero;stroke:none"
         d="m 457.273,1691.01 c -0.207,0.2 2.512,-10.81 5.633,-10.43 2.356,0.25 0.582,4.11 -0.668,5.67 -0.062,-1.42 -0.398,-1.9 -0.746,-0.07 -0.246,1.01 0.207,0.78 0.746,0.07 0.246,2.09 -0.015,6.34 -1.14,8.15 0.59,-0.91 -4.028,-1.05 -4.578,-0.59 -3.54,3.08 2.656,7.01 -3.207,5.69 -4.086,-0.9 -1.864,-4.62 -0.543,-7.26 0.707,-1.44 3.421,-0.24 4.503,-1.23" /><path
         id="path292"
         style="fill:#7a715f;fill-opacity:1;fill-rule:nonzero;stroke:none"
         d="m 3844.81,1106.51 c 0.54,-0.28 1.68,-1.08 3.99,-3.54 11.31,-11.92 2.53,-5.09 -0.72,6.25 -1.34,-2.65 -2.64,-2.85 -3.27,-2.71" /><path
         id="path294"
         style="fill:#7a715f;fill-opacity:1;fill-rule:nonzero;stroke:none"
         d="m 3768.54,1364.52 c -7.2,-6.29 -7.92,-7.83 -5.84,-7.07 2.56,3.37 4.75,6.11 5.84,7.07" /><path
         id="path296"
         style="fill:#7a715f;fill-opacity:1;fill-rule:nonzero;stroke:none"
         d="m 3125.46,1932.3 c 2.53,-0.05 6.27,4.2 6.37,7.45 -1.07,1.07 -2.05,2.08 -3.13,3.08 -4.83,0.02 -9.13,-10.43 -3.24,-10.53" /><path
         id="path298"
         style="fill:#7a715f;fill-opacity:1;fill-rule:nonzero;stroke:none"
         d="m 3115.58,1946.29 c -0.15,-2.12 -0.95,-4.32 -3.35,-6.31 10.41,8.57 8.17,8.73 3.35,6.31" /><path
         id="path300"
         style="fill:#7a715f;fill-opacity:1;fill-rule:nonzero;stroke:none"
         d="m 223.887,1369.22 c -7.93,0.67 -5.832,-11.49 -3.617,-13.49 1.168,-1.09 3.46,-1.08 5.316,0.81 -1.75,-0.72 0.734,12.44 -1.699,12.68" /><path
         id="path302"
         style="fill:#7a715f;fill-opacity:1;fill-rule:nonzero;stroke:none"
         d="m 2995.02,1892.06 c 1.73,0.42 3.83,0.9 6.22,1.48 -2.21,-0.47 -4.3,-0.93 -6.23,-1.32 -0.01,-0.04 0.03,-0.11 0.01,-0.16" /><path
         id="path304"
         style="fill:#7a715f;fill-opacity:1;fill-rule:nonzero;stroke:none"
         d="m 838.504,2104.1 -43.098,-3.77 -26.918,-170.49 c -2.246,-15.34 -4.093,-30.64 -5.41,-47.49 l -0.394,-0.03 c -4.254,16.75 -9.766,34.2 -14.965,48.09 l -61.047,160.41 -47.055,-4.12 -31.117,-168.07 c -3.324,-16.63 -5,-33.91 -6.246,-51.54 l -0.395,-0.04 c -3.929,17.59 -8.976,34.28 -14.882,51.69 l -55.305,158.52 -45.867,-4.01 92.547,-260.85 50.609,4.43 30.582,169.62 c 2.898,16.98 4.641,33.47 5.168,50.25 l 0.394,0.04 c 4.254,-16.76 8.907,-33.49 14.672,-49.32 l 59.899,-160.9 52.984,4.63 z m 85.375,-1.69 c -1.281,14.63 -14.578,25.42 -29.207,24.14 -15.027,-1.32 -26.246,-14.25 -24.965,-28.88 1.313,-15.03 14.574,-25.42 29.602,-24.11 14.629,1.28 25.847,14.22 24.57,28.85 z M 940.5,1844.09 923.309,2040.6 881,2036.9 898.191,1840.38 Z m 136.18,213.52 c -37.11,0.73 -54.74,-25.51 -61.12,-52.77 l -0.79,-0.07 c 1.45,15.27 1.12,32.77 0.15,43.85 l -40.334,-3.53 17.191,-196.52 42.313,3.7 -6.99,79.87 c -5.16,58.92 11.44,87.86 51.24,83.77 z m 425.17,-164.41 -11.87,135.62 c -3.87,44.29 -26.63,63.01 -64.19,59.73 -35.59,-3.12 -55.26,-28.75 -61.94,-48.05 -4.68,17.12 -19.52,40.92 -58.27,37.53 -30.44,-2.66 -53.47,-21.81 -62.65,-48.91 l -0.83,0.33 c 0.94,12.03 0.31,28.31 -0.62,38.99 l -40.33,-3.53 17.19,-196.52 42.31,3.7 -8.2,93.71 c -3.63,41.52 17.07,73.61 43.95,75.97 23.73,2.07 30,-14.91 31.97,-37.45 l 10.96,-125.34 41.52,3.63 -8.2,93.71 c -3.8,43.5 19.05,73.79 44.35,76 22.54,1.97 29.86,-13.33 31.97,-37.45 l 10.96,-125.34 z m 197.22,17.25 c -2.25,16.54 -4.41,36.67 -5.89,53.67 l -6.82,77.9 c -3.73,42.7 -23.81,67.24 -81.14,62.22 -26.1,-2.28 -52.47,-10.56 -71.55,-20.2 l 10.39,-32.16 c 16.7,9.43 39.91,17.44 58.1,19.03 28.86,2.52 39.89,-9.66 42.31,-37.34 l 0.73,-8.3 c -71.97,-6.3 -113.78,-33.86 -109.91,-78.15 2.8,-32.03 26.13,-52.7 59.74,-49.76 31.23,2.74 54.23,22.28 61.68,46.44 l 0.43,-0.36 c -0.65,-10.82 0.09,-23.9 1.2,-36.55 z m -50.93,81.21 c 2.45,-28.08 -14.5,-57.45 -42.97,-59.94 -16.61,-1.45 -27.89,9.12 -29.21,24.14 -1.62,18.58 13.21,35.82 71.73,40.94 z m 232.5,-58.55 -9.4,34.64 c -11.74,-7.01 -26.13,-11.05 -41.55,-12.4 -38.75,-3.39 -53.79,22.78 -56.94,58.76 -3.53,40.34 11.84,69.57 45.06,72.48 14.63,1.28 29.57,-1 41.85,-4.71 l 3.97,36.6 c -13.5,4 -29.92,4.96 -46.53,3.5 -65.64,-5.74 -93.69,-54.01 -88.22,-116.48 6.12,-69.99 45.08,-91.68 95.69,-87.26 19.77,1.73 40.45,6.73 56.07,14.87 z m 198.25,10.57 -12.04,137.6 c -3.01,34.4 -19.34,61.66 -64.02,57.75 -32.02,-2.8 -53.93,-21.05 -63.22,-46.97 l -0.83,0.33 c 1.8,11.31 1.17,27.59 0.1,39.85 l -7.82,89.36 -42.3,-3.7 25.25,-288.65 42.31,3.71 -8.27,94.5 c -3.46,39.54 15.55,72.68 45.21,75.27 22.54,1.98 30.54,-12.07 32.68,-36.58 l 11.04,-126.13 z m 198.99,136.94 c -3.91,44.68 -30.49,79.81 -86.64,74.9 -56.93,-4.98 -86.64,-52.61 -81.48,-111.52 6.05,-69.2 42.43,-97.89 102.93,-92.6 24.51,2.15 48.61,9.04 68.48,18.74 l -8.41,32.34 c -17.13,-9.07 -36.56,-14.76 -55.54,-16.42 -40.33,-3.52 -61.04,14.58 -63.76,59.37 l 124.95,10.93 c 0.46,8.41 0.02,17.93 -0.53,24.26 z m -42.76,1.44 -83.43,-7.3 c 1.17,27.6 16.22,46.84 39.95,48.92 24.91,2.18 41.85,-13.88 43.48,-41.62 z m 258.94,-102.06 -12.04,137.61 c -3.01,34.39 -19.34,61.65 -64.02,57.75 -33.21,-2.91 -55.41,-22.38 -64.67,-48.69 l -0.39,-0.04 c 1.01,11.25 0.31,28.32 -0.62,39 l -40.33,-3.54 17.19,-196.51 42.31,3.7 -8.27,94.5 c -3.46,39.54 15.55,72.68 45.21,75.27 22.54,1.98 30.54,-12.07 32.68,-36.58 l 11.04,-126.13 z m 431.38,37.74 -11.86,135.63 c -3.88,44.28 -26.63,63.01 -64.19,59.72 -35.59,-3.11 -55.26,-28.73 -61.94,-48.05 -4.69,17.12 -19.52,40.93 -58.27,37.54 -30.44,-2.67 -53.47,-21.81 -62.66,-48.91 l -0.82,0.32 c 0.94,12.04 0.31,28.32 -0.62,38.99 l -40.33,-3.52 17.19,-196.52 42.31,3.7 -8.2,93.71 c -3.63,41.52 17.07,73.61 43.95,75.97 23.73,2.07 29.99,-14.91 31.97,-37.45 l 10.96,-125.34 41.52,3.63 -8.2,93.71 c -3.8,43.49 19.05,73.78 44.35,76 22.54,1.97 29.85,-13.33 31.97,-37.45 l 10.96,-125.34 z m 77.28,266.54 c -1.28,14.63 -14.57,25.42 -29.2,24.14 -15.03,-1.31 -26.25,-14.24 -24.97,-28.88 1.32,-15.02 14.58,-25.41 29.6,-24.1 14.63,1.28 25.85,14.21 24.57,28.84 z m 16.63,-258.32 -17.2,196.52 -42.3,-3.71 17.19,-196.51 z m 160.34,15.22 -6.53,33.7 c -6.98,-2.21 -15.18,-4.12 -23.88,-4.88 -19.77,-1.73 -26.39,5.66 -28.95,34.92 l -8.23,94.1 51.4,4.5 -2.87,32.82 -51.41,-4.5 -6.46,73.95 -41.31,-15.17 5.47,-62.48 -37.57,-3.28 2.87,-32.82 37.57,3.28 9.37,-107.15 c 3.84,-43.89 17.91,-58.99 59.83,-55.33 13.04,1.14 29.08,4.54 40.7,8.34 z m 64.01,285.3 -49.82,-4.35 25.38,-208.16 35.98,3.15 z m 24.39,-256.05 c -1.28,14.63 -14.14,25.06 -29.17,23.75 -15.42,-1.35 -26.28,-13.86 -25,-28.49 1.31,-15.02 14.18,-25.45 29.6,-24.1 15.03,1.31 25.89,13.82 24.57,28.84" /></g></g></svg>